<?xml version="1.0" standalone="no"?>
<!DOCTYPE svg PUBLIC "-//W3C//DTD SVG 20010904//EN"
 "http://www.w3.org/TR/2001/REC-SVG-20010904/DTD/svg10.dtd">
<svg version="1.0" xmlns="http://www.w3.org/2000/svg"
 width="512.000000pt" height="512.000000pt" viewBox="0 0 512.000000 512.000000"
 preserveAspectRatio="xMidYMid meet">

<g transform="translate(0.000000,512.000000) scale(0.100000,-0.100000)"
fill="#000000" stroke="none">
<path d="M1635 4880 c-93 -10 -160 -37 -274 -111 -161 -103 -286 -248 -347
-398 -46 -114 -55 -311 -23 -523 11 -73 10 -77 -12 -108 -21 -28 -24 -42 -23
-123 2 -104 32 -231 65 -278 11 -16 31 -72 44 -123 81 -328 321 -626 587 -728
83 -32 205 -35 303 -9 292 80 573 401 660 755 9 38 27 85 41 105 55 85 89 336
52 393 -14 22 -14 31 4 108 27 119 29 319 4 420 -49 197 -170 346 -361 443
-133 67 -470 169 -595 180 -30 3 -86 2 -125 -3z"/>
<path d="M1213 2613 c-65 -65 -268 -167 -483 -242 -300 -105 -394 -172 -477
-343 -28 -57 -63 -139 -78 -183 -122 -371 -208 -1041 -152 -1186 25 -65 47
-82 177 -133 340 -132 880 -241 1424 -286 158 -13 256 -12 461 6 297 27 784
102 809 125 12 10 -70 111 -132 163 -112 94 -334 218 -537 301 -49 20 -186 63
-304 96 -118 32 -215 60 -216 61 -3 3 710 1457 718 1465 9 8 374 -226 507
-326 130 -97 276 -220 391 -329 l67 -63 41 48 c22 27 41 51 41 56 0 17 -71
182 -104 241 -76 137 -189 201 -661 376 -125 46 -223 101 -282 158 l-40 39 -6
-96 c-23 -346 -200 -533 -502 -532 -168 0 -291 48 -396 152 -92 92 -173 263
-198 418 -6 35 -12 64 -13 65 -2 0 -27 -23 -55 -51z"/>
<path d="M5003 2645 c-155 -60 -397 -201 -573 -335 -298 -227 -678 -597 -969
-943 -41 -48 -77 -84 -81 -80 -91 111 -131 156 -219 246 -155 159 -336 312
-534 451 l-68 47 -189 -386 c-105 -213 -190 -390 -190 -394 0 -4 46 -24 103
-45 148 -54 425 -193 547 -274 156 -103 239 -187 415 -418 87 -113 160 -202
164 -197 4 4 38 76 76 158 277 607 611 1174 921 1565 186 233 470 503 627 594
74 44 64 47 -30 11z"/>
</g>
</svg>
