<?xml version="1.0" standalone="no"?>
<!DOCTYPE svg PUBLIC "-//W3C//DTD SVG 20010904//EN"
 "http://www.w3.org/TR/2001/REC-SVG-20010904/DTD/svg10.dtd">
<svg version="1.0" xmlns="http://www.w3.org/2000/svg"
 width="512.000000pt" height="512.000000pt" viewBox="0 0 512.000000 512.000000"
 preserveAspectRatio="xMidYMid meet">

<g transform="translate(0.000000,512.000000) scale(0.100000,-0.100000)"
fill="#000000" stroke="none">
<path d="M1625 5108 c-29 -17 -44 -40 -45 -67 0 -13 16 -110 35 -217 19 -106
35 -198 35 -203 0 -7 -218 -11 -651 -13 l-651 -3 -24 -28 -24 -28 0 -2247 c1
-1751 3 -2251 13 -2263 7 -9 22 -21 34 -27 16 -9 494 -12 1913 -12 2019 0
1936 -2 1954 45 3 9 6 182 6 383 l0 367 294 346 c161 191 296 354 300 364 18
49 7 66 -131 207 -76 77 -153 147 -170 154 -52 22 -81 3 -183 -126 -51 -63
-96 -116 -101 -118 -5 -2 -9 583 -9 1465 -1 1586 3 1491 -54 1513 -18 6 -247
10 -662 10 -349 0 -634 1 -634 3 0 1 16 90 35 197 40 225 42 249 16 281 l-19
24 -629 2 c-462 2 -633 0 -648 -9z m1114 -255 c-9 -54 -44 -245 -76 -425 l-58
-328 -342 0 -343 0 -5 23 c-9 38 -145 801 -145 815 0 9 105 12 494 12 l493 0
-18 -97z m-1014 -643 c42 -228 52 -263 81 -274 8 -3 215 -6 458 -6 374 0 445
2 463 15 24 17 30 41 73 280 17 94 33 180 35 193 l5 22 605 0 605 0 0 -1525 0
-1526 -122 -152 c-66 -84 -125 -156 -129 -161 -5 -6 -53 34 -117 97 -111 109
-129 119 -175 96 -31 -16 -276 -259 -293 -291 -8 -15 -14 -37 -14 -50 0 -27
540 -573 577 -583 50 -12 84 18 250 222 l23 28 0 -212 0 -213 -1790 0 -1790 0
0 2135 0 2135 607 -2 608 -3 40 -225z m2833 -2613 l63 -64 -411 -486 c-226
-268 -414 -487 -418 -487 -4 0 -93 86 -197 190 l-190 190 68 67 67 68 102
-102 c113 -112 144 -131 186 -111 15 8 164 184 342 406 173 215 317 392 320
392 3 0 34 -29 68 -63z"/>
<path d="M2194 4769 c-61 -18 -127 -71 -156 -128 -92 -176 43 -384 239 -369
140 10 236 113 237 253 0 165 -163 290 -320 244z m105 -174 c31 -15 54 -65 44
-93 -13 -36 -46 -62 -80 -62 -90 0 -115 126 -32 159 33 13 36 13 68 -4z"/>
<path d="M852 3743 c-7 -3 -19 -18 -27 -33 -13 -25 -15 -160 -15 -980 0 -980
0 -977 39 -1007 12 -10 331 -12 1414 -13 l1398 0 24 25 25 24 0 971 0 971 -25
24 -24 25 -1398 -1 c-769 0 -1404 -3 -1411 -6z m2688 -1013 l0 -850 -340 0
-340 0 0 230 c0 246 -7 304 -48 389 -33 67 -118 153 -183 184 l-50 23 19 25
c163 208 90 520 -149 638 -75 37 -184 53 -263 39 -73 -13 -164 -61 -219 -115
-89 -86 -127 -177 -127 -304 0 -93 19 -161 65 -230 20 -28 34 -53 33 -54 -2
-1 -27 -15 -56 -30 -67 -36 -146 -120 -177 -188 -35 -75 -45 -163 -45 -399 l0
-208 -340 0 -340 0 0 850 0 850 1280 0 1280 0 0 -850z m-1180 489 c83 -37 131
-97 150 -187 38 -173 -128 -333 -302 -293 -192 43 -264 281 -130 425 67 72
192 96 282 55z m163 -675 c54 -18 115 -73 142 -129 18 -36 20 -66 23 -287 l4
-248 -432 0 -432 0 4 243 c3 204 6 248 21 282 25 55 73 103 132 131 48 23 59
24 271 24 175 0 230 -3 267 -16z"/>
<path d="M810 1455 l0 -85 640 0 640 0 0 85 0 85 -640 0 -640 0 0 -85z"/>
<path d="M2260 1455 l0 -85 255 0 255 0 0 85 0 85 -255 0 -255 0 0 -85z"/>
<path d="M2947 1534 c-4 -4 -7 -43 -7 -86 l0 -78 175 0 176 0 -3 83 -3 82
-166 3 c-91 1 -168 -1 -172 -4z"/>
<path d="M810 935 l0 -85 1025 0 1025 0 0 85 0 85 -1025 0 -1025 0 0 -85z"/>
<path d="M810 425 l0 -85 385 0 385 0 0 85 0 85 -385 0 -385 0 0 -85z"/>
<path d="M1750 425 l0 -85 680 0 680 0 0 85 0 85 -680 0 -680 0 0 -85z"/>
</g>
</svg>
