<?xml version="1.0" standalone="no"?>
<!DOCTYPE svg PUBLIC "-//W3C//DTD SVG 20010904//EN"
 "http://www.w3.org/TR/2001/REC-SVG-20010904/DTD/svg10.dtd">
<svg version="1.0" xmlns="http://www.w3.org/2000/svg"
 width="512.000000pt" height="512.000000pt" viewBox="0 0 512.000000 512.000000"
 preserveAspectRatio="xMidYMid meet">

<g transform="translate(0.000000,512.000000) scale(0.100000,-0.100000)"
fill="#000000" stroke="none">
<path d="M1894 3019 c-328 -328 -374 -377 -385 -416 -25 -91 -26 -89 379 -495
364 -364 368 -368 408 -368 46 0 90 34 96 73 9 56 -12 82 -295 365 l-282 283
545 -3 545 -3 78 -28 c250 -88 407 -292 433 -562 8 -84 15 -100 54 -120 43
-22 76 -18 112 14 32 29 33 31 31 105 -7 305 -199 589 -487 721 -152 70 -142
69 -755 73 l-555 3 281 282 c154 155 286 292 292 304 33 66 -18 143 -96 143
-23 0 -89 -62 -399 -371z"/>
</g>
</svg>
