<?xml version="1.0" standalone="no"?>
<!DOCTYPE svg PUBLIC "-//W3C//DTD SVG 20010904//EN"
 "http://www.w3.org/TR/2001/REC-SVG-20010904/DTD/svg10.dtd">
<svg version="1.0" xmlns="http://www.w3.org/2000/svg"
 width="512.000000pt" height="512.000000pt" viewBox="0 0 512.000000 512.000000"
 preserveAspectRatio="xMidYMid meet">

<g transform="translate(0.000000,512.000000) scale(0.100000,-0.100000)"
fill="#000000" stroke="none">
<path d="M1383 4738 c-148 -148 -224 -231 -228 -249 -4 -16 0 -39 9 -56 8 -15
108 -121 223 -235 206 -205 210 -208 251 -208 59 0 92 33 92 91 0 41 -5 47
-127 171 l-127 128 1147 0 c819 0 1153 3 1170 11 54 25 66 105 22 148 l-25 26
-1157 3 -1157 2 127 128 c121 123 127 131 127 169 0 34 -6 46 -31 67 -63 53
-69 50 -316 -196z"/>
<path d="M3325 4201 c-25 -11 -51 -40 -59 -67 -12 -39 15 -79 137 -201 l122
-123 -1157 0 -1157 0 -28 -24 c-39 -34 -39 -98 0 -132 l28 -24 1157 0 1156 0
-121 -123 c-67 -67 -127 -135 -132 -150 -15 -39 -4 -72 32 -103 60 -50 76 -40
310 193 115 114 215 221 222 237 24 55 6 79 -207 294 -232 232 -249 245 -303
223z"/>
<path d="M2335 3014 c-353 -54 -609 -175 -842 -397 -214 -205 -353 -452 -414
-737 -30 -139 -33 -418 -6 -553 39 -191 112 -367 224 -535 71 -108 249 -288
361 -366 163 -114 374 -203 577 -242 126 -25 395 -25 525 0 297 57 561 196
770 407 206 207 339 457 397 747 26 131 23 394 -5 529 -109 508 -470 915 -957
1076 -157 52 -249 68 -430 72 -93 2 -183 1 -200 -1z m372 -199 c268 -44 490
-159 689 -359 152 -153 243 -298 303 -484 46 -142 56 -213 55 -392 0 -137 -4
-181 -23 -258 -61 -248 -179 -453 -358 -623 -518 -493 -1348 -459 -1822 74
-205 231 -311 509 -311 817 0 254 66 472 205 679 86 130 167 216 283 304 179
134 370 214 602 250 65 11 294 6 377 -8z"/>
<path d="M2336 2540 c-295 -64 -533 -290 -618 -587 -18 -62 -22 -103 -22 -203
0 -109 4 -135 28 -204 80 -234 292 -557 572 -872 84 -94 132 -124 199 -124 72
0 116 30 216 145 306 350 517 687 569 908 65 271 -53 589 -289 777 -187 149
-432 209 -655 160z m319 -136 c132 -33 268 -121 360 -234 131 -160 184 -401
127 -575 -65 -195 -234 -460 -482 -755 -124 -147 -130 -152 -171 -148 -29 3
-48 20 -137 123 -303 352 -495 673 -527 881 -8 54 9 188 35 266 65 194 234
363 429 428 125 41 237 46 366 14z"/>
<path d="M2405 2146 c-206 -51 -341 -251 -305 -453 30 -174 167 -309 338 -333
216 -30 415 116 452 333 36 207 -111 417 -321 457 -65 13 -101 12 -164 -4z
m200 -145 c49 -22 108 -80 131 -130 10 -20 20 -64 22 -99 5 -77 -16 -138 -67
-195 -167 -186 -476 -55 -459 195 5 75 26 122 76 173 54 55 104 75 187 75 47
0 83 -7 110 -19z"/>
</g>
</svg>
