<?xml version="1.0" standalone="no"?>
<!DOCTYPE svg PUBLIC "-//W3C//DTD SVG 20010904//EN"
 "http://www.w3.org/TR/2001/REC-SVG-20010904/DTD/svg10.dtd">
<svg version="1.0" xmlns="http://www.w3.org/2000/svg"
 width="512.000000pt" height="512.000000pt" viewBox="0 0 512.000000 512.000000"
 preserveAspectRatio="xMidYMid meet">

<g transform="translate(0.000000,512.000000) scale(0.100000,-0.100000)"
fill="#000000" stroke="none">
<path d="M2827 3265 l-777 -895 32 -29 c18 -16 93 -80 166 -144 l133 -115 68
76 c62 72 1449 1669 1477 1702 11 13 -10 36 -151 158 -90 78 -165 142 -167
142 -2 0 -353 -403 -781 -895z"/>
<path d="M3515 2884 c-610 -701 -1111 -1274 -1114 -1274 -3 0 -210 204 -458
452 l-453 453 -157 -158 -158 -157 620 -620 c341 -341 623 -619 626 -618 4 2
576 657 1273 1456 l1266 1453 -165 144 c-90 80 -165 145 -167 144 -2 0 -502
-574 -1113 -1275z"/>
<path d="M310 2355 l-155 -155 620 -620 620 -620 157 157 158 158 -617 617
c-340 340 -620 618 -623 618 -3 0 -75 -70 -160 -155z"/>
</g>
</svg>
