<?xml version="1.0" standalone="no"?>
<!DOCTYPE svg PUBLIC "-//W3C//DTD SVG 20010904//EN"
 "http://www.w3.org/TR/2001/REC-SVG-20010904/DTD/svg10.dtd">
<svg version="1.0" xmlns="http://www.w3.org/2000/svg"
 width="512.000000pt" height="512.000000pt" viewBox="0 0 512.000000 512.000000"
 preserveAspectRatio="xMidYMid meet">

<g transform="translate(0.000000,512.000000) scale(0.100000,-0.100000)"
fill="#000000" stroke="none">
<path d="M2135 5101 c-66 -41 -70 -51 -70 -191 0 -123 1 -129 25 -155 45 -48
69 -55 205 -55 l125 0 0 -158 0 -158 -122 -22 c-213 -39 -404 -104 -598 -203
-241 -123 -314 -185 -346 -297 -27 -90 -5 -178 62 -252 46 -51 100 -79 164
-87 77 -9 131 4 216 53 314 181 536 250 839 261 665 24 1280 -357 1553 -962
102 -226 144 -427 144 -680 -1 -350 -104 -675 -304 -954 -82 -114 -270 -300
-388 -383 -182 -129 -426 -231 -655 -275 -128 -24 -446 -24 -570 0 -306 60
-548 174 -775 363 -283 236 -480 568 -554 938 -9 43 -16 80 -16 82 0 2 44 4
98 4 112 0 160 11 201 46 40 33 65 102 56 151 -6 34 -429 785 -507 901 -64 94
-193 109 -265 31 -36 -40 -522 -890 -529 -926 -10 -52 4 -101 42 -142 44 -49
89 -61 232 -61 l108 0 17 -114 c112 -744 648 -1416 1355 -1697 166 -66 303
-103 497 -135 137 -23 453 -25 600 -5 482 65 929 285 1269 625 351 351 564
782 631 1274 17 130 20 407 5 532 -46 377 -189 744 -404 1034 -358 486 -851
789 -1448 891 l-38 6 0 159 0 160 135 0 c154 0 189 9 226 61 22 31 24 44 24
149 0 105 -2 118 -24 149 -44 62 -35 61 -638 61 -516 0 -550 -1 -578 -19z"/>
<path d="M4372 4496 c-45 -24 -171 -176 -178 -213 -14 -75 0 -94 237 -313 122
-113 234 -213 248 -222 15 -11 45 -18 71 -18 57 0 80 16 168 113 78 86 93 122
73 186 -9 30 -55 78 -237 247 -125 115 -236 214 -248 221 -28 16 -105 16 -134
-1z"/>
<path d="M2690 2872 l0 -682 675 0 675 0 0 30 c0 64 -22 229 -42 315 -88 379
-330 691 -674 866 -169 85 -351 136 -531 146 l-103 6 0 -681z"/>
</g>
</svg>
