<?xml version="1.0" encoding="UTF-8"?>
<!DOCTYPE svg PUBLIC "-//W3C//DTD SVG 1.1//EN" "http://www.w3.org/Graphics/SVG/1.1/DTD/svg11.dtd">
<svg xmlns="http://www.w3.org/2000/svg" version="1.1" width="980px" height="980px" style="shape-rendering:geometricPrecision; text-rendering:geometricPrecision; image-rendering:optimizeQuality; fill-rule:evenodd; clip-rule:evenodd" xmlns:xlink="http://www.w3.org/1999/xlink">
<g><path style="opacity:1" fill="#070707" d="M 258.5,-0.5 C 265.5,-0.5 272.5,-0.5 279.5,-0.5C 282.758,1.08754 285.425,3.42088 287.5,6.5C 287.427,8.02694 288.094,9.02694 289.5,9.5C 292.213,13.6566 293.713,18.3233 294,23.5C 294.968,75.1945 294.635,126.861 293,178.5C 291.357,185.97 287.19,191.47 280.5,195C 273.916,196.544 267.249,196.877 260.5,196C 258.509,195.626 256.842,194.793 255.5,193.5C 255.027,192.094 254.027,191.427 252.5,191.5C 249.023,188.56 246.523,184.893 245,180.5C 244.333,126.5 244.333,72.5 245,18.5C 246.576,9.98832 251.076,3.65499 258.5,-0.5 Z"/></g>
<g><path style="opacity:1" fill="#070707" d="M 675.5,-0.5 C 682.167,-0.5 688.833,-0.5 695.5,-0.5C 698.09,0.749245 700.424,2.41591 702.5,4.5C 702.427,6.02694 703.094,7.02694 704.5,7.5C 706.25,8.65938 707.25,10.326 707.5,12.5C 707.41,15.1522 708.076,17.4855 709.5,19.5C 710.662,71.4294 710.828,123.429 710,175.5C 706.395,192.729 695.895,199.562 678.5,196C 675.975,195.576 673.975,194.41 672.5,192.5C 672.027,191.094 671.027,190.427 669.5,190.5C 665.32,187.133 662.487,182.8 661,177.5C 660.172,124.763 660.338,72.0961 661.5,19.5C 662.924,17.4855 663.59,15.1522 663.5,12.5C 663.75,10.326 664.75,8.65938 666.5,7.5C 667.906,7.02694 668.573,6.02694 668.5,4.5C 670.027,4.57298 671.027,3.90632 671.5,2.5C 672.59,1.14294 673.924,0.142944 675.5,-0.5 Z"/></g>
<g><path style="opacity:1" fill="#777777" d="M 671.5,2.5 C 671.027,3.90632 670.027,4.57298 668.5,4.5C 668.973,3.09368 669.973,2.42702 671.5,2.5 Z"/></g>
<g><path style="opacity:1" fill="#858585" d="M 668.5,4.5 C 668.573,6.02694 667.906,7.02694 666.5,7.5C 666.427,5.97306 667.094,4.97306 668.5,4.5 Z"/></g>
<g><path style="opacity:1" fill="#868686" d="M 702.5,4.5 C 703.906,4.97306 704.573,5.97306 704.5,7.5C 703.094,7.02694 702.427,6.02694 702.5,4.5 Z"/></g>
<g><path style="opacity:1" fill="#848484" d="M 287.5,6.5 C 288.906,6.97306 289.573,7.97306 289.5,9.5C 288.094,9.02694 287.427,8.02694 287.5,6.5 Z"/></g>
<g><path style="opacity:1" fill="#767676" d="M 663.5,12.5 C 663.59,15.1522 662.924,17.4855 661.5,19.5C 661.41,16.8478 662.076,14.5145 663.5,12.5 Z"/></g>
<g><path style="opacity:1" fill="#787878" d="M 707.5,12.5 C 708.924,14.5145 709.59,16.8478 709.5,19.5C 708.076,17.4855 707.41,15.1522 707.5,12.5 Z"/></g>
<g><path style="opacity:1" fill="#030303" d="M 920.5,211.5 C 920.446,209.368 919.446,208.035 917.5,207.5C 913.833,202.833 910.167,198.167 906.5,193.5C 905.415,191.413 903.749,190.08 901.5,189.5C 900.5,189.167 899.833,188.5 899.5,187.5C 898.738,185.738 897.404,184.738 895.5,184.5C 895.027,183.094 894.027,182.427 892.5,182.5C 891.508,182.672 890.842,182.338 890.5,181.5C 890.027,180.094 889.027,179.427 887.5,179.5C 884.082,178.361 880.749,177.028 877.5,175.5C 876.365,173.787 874.698,173.12 872.5,173.5C 868.742,173.152 865.076,172.485 861.5,171.5C 827.671,170.502 793.671,170.168 759.5,170.5C 759.5,154.5 759.5,138.5 759.5,122.5C 766.687,122.825 773.687,122.491 780.5,121.5C 807.16,120.527 833.827,120.36 860.5,121C 880.425,123.251 898.758,129.751 915.5,140.5C 916.035,142.446 917.368,143.446 919.5,143.5C 928.71,149.038 936.71,156.038 943.5,164.5C 943.738,166.404 944.738,167.738 946.5,168.5C 947.833,169.167 948.833,170.167 949.5,171.5C 949.427,173.027 950.094,174.027 951.5,174.5C 951.427,176.027 952.094,177.027 953.5,177.5C 954.167,177.5 954.5,177.833 954.5,178.5C 954.427,180.027 955.094,181.027 956.5,181.5C 956.427,183.027 957.094,184.027 958.5,184.5C 959.338,184.842 959.672,185.508 959.5,186.5C 959.427,188.027 960.094,189.027 961.5,189.5C 966.225,196.953 969.891,204.953 972.5,213.5C 972.41,216.152 973.076,218.485 974.5,220.5C 974.41,223.152 975.076,225.485 976.5,227.5C 977.607,231.142 978.607,234.809 979.5,238.5C 979.5,449.833 979.5,661.167 979.5,872.5C 971.681,917.497 947.015,949.664 905.5,969C 893.137,974.087 880.471,977.587 867.5,979.5C 615.5,979.5 363.5,979.5 111.5,979.5C 94.9938,977.266 79.3272,972.1 64.5,964C 62.2528,962.723 60.2528,961.223 58.5,959.5C 58.0269,958.094 57.0269,957.427 55.5,957.5C 52.1092,956.471 49.4426,954.471 47.5,951.5C 47.0269,950.094 46.0269,949.427 44.5,949.5C 43.1667,948.833 42.1667,947.833 41.5,946.5C 40.0892,944.086 38.0892,942.419 35.5,941.5C 35.5,940.167 34.8333,939.5 33.5,939.5C 14.909,919.318 3.57565,895.651 -0.5,868.5C -0.5,656.167 -0.5,443.833 -0.5,231.5C 0.450666,226.083 1.784,220.749 3.5,215.5C 4.92381,213.485 5.59047,211.152 5.5,208.5C 7.49064,200.192 10.824,192.525 15.5,185.5C 16.9063,185.027 17.573,184.027 17.5,182.5C 18.9063,182.027 19.573,181.027 19.5,179.5C 21.0621,175.608 23.3954,172.275 26.5,169.5C 28.2624,168.738 29.2624,167.404 29.5,165.5C 30.5,163.833 31.8333,162.5 33.5,161.5C 36.5,159.167 39.1667,156.5 41.5,153.5C 41.5,152.833 41.8333,152.5 42.5,152.5C 45.0892,151.581 47.0892,149.914 48.5,147.5C 64.6741,133.924 83.3408,125.424 104.5,122C 116.298,120.916 128.131,120.416 140,120.5C 158.502,120.816 177.002,121.149 195.5,121.5C 195.5,138.167 195.5,154.833 195.5,171.5C 168.831,171.333 142.165,171.5 115.5,172C 93.1463,176.588 75.3129,188.088 62,206.5C 54.2458,218.006 49.9124,230.673 49,244.5C 48.5001,260.83 48.3334,277.163 48.5,293.5C 342.5,293.5 636.5,293.5 930.5,293.5C 930.863,273.805 930.363,254.138 929,234.5C 927.051,226.485 924.218,218.818 920.5,211.5 Z M 922.5,885.5 C 921.094,885.973 920.427,886.973 920.5,888.5C 919.094,888.973 918.427,889.973 918.5,891.5C 917.167,892.167 916.167,893.167 915.5,894.5C 913.167,896.167 911.167,898.167 909.5,900.5C 908.833,900.5 908.5,900.833 908.5,901.5C 906.251,902.08 904.585,903.413 903.5,905.5C 901.566,906.11 899.899,907.11 898.5,908.5C 896.973,908.427 895.973,909.094 895.5,910.5C 887.431,914.204 879.431,917.871 871.5,921.5C 866.835,922.057 862.502,923.39 858.5,925.5C 850.208,927.156 841.874,928.656 833.5,930C 594.833,930.667 356.167,930.667 117.5,930C 107.906,928.857 98.9061,926.023 90.5,921.5C 89.7095,920.599 88.7095,919.932 87.5,919.5C 83.5,916.5 79.5,913.5 75.5,910.5C 73.8333,908.167 71.8333,906.167 69.5,904.5C 68.1667,902.5 66.5,900.833 64.5,899.5C 64.573,897.973 63.9063,896.973 62.5,896.5C 62.573,894.973 61.9063,893.973 60.5,893.5C 60.573,891.973 59.9063,890.973 58.5,890.5C 53.0068,880.185 49.8402,869.185 49,857.5C 48.5,686.167 48.3333,514.834 48.5,343.5C 342.5,343.5 636.5,343.5 930.5,343.5C 930.667,514.5 930.5,685.5 930,856.5C 929.842,866.798 927.342,876.465 922.5,885.5 Z"/></g>
<g><path style="opacity:1" fill="#959595" d="M 342.5,122.5 C 432.332,121.501 522.332,121.167 612.5,121.5C 612.83,138.342 612.497,155.008 611.5,171.5C 611.5,155.167 611.5,138.833 611.5,122.5C 521.833,122.5 432.167,122.5 342.5,122.5 Z"/></g>
<g><path style="opacity:1" fill="#000000" d="M 342.5,122.5 C 432.167,122.5 521.833,122.5 611.5,122.5C 611.5,138.833 611.5,155.167 611.5,171.5C 521.833,171.5 432.167,171.5 342.5,171.5C 342.5,155.167 342.5,138.833 342.5,122.5 Z"/></g>
<g><path style="opacity:1" fill="#6e6e6e" d="M 780.5,121.5 C 773.687,122.491 766.687,122.825 759.5,122.5C 759.5,138.5 759.5,154.5 759.5,170.5C 793.671,170.168 827.671,170.502 861.5,171.5C 827.167,171.5 792.833,171.5 758.5,171.5C 758.5,154.833 758.5,138.167 758.5,121.5C 765.833,121.5 773.167,121.5 780.5,121.5 Z"/></g>
<g><path style="opacity:1" fill="#818181" d="M 915.5,140.5 C 917.23,141.026 918.564,142.026 919.5,143.5C 917.368,143.446 916.035,142.446 915.5,140.5 Z"/></g>
<g><path style="opacity:1" fill="#5f5f5f" d="M 48.5,147.5 C 47.0892,149.914 45.0892,151.581 42.5,152.5C 43.9108,150.086 45.9108,148.419 48.5,147.5 Z"/></g>
<g><path style="opacity:1" fill="#919191" d="M 41.5,153.5 C 39.1667,156.5 36.5,159.167 33.5,161.5C 35.1667,157.833 37.8333,155.167 41.5,153.5 Z"/></g>
<g><path style="opacity:1" fill="#848484" d="M 943.5,164.5 C 945.262,165.262 946.262,166.596 946.5,168.5C 944.738,167.738 943.738,166.404 943.5,164.5 Z"/></g>
<g><path style="opacity:1" fill="#848484" d="M 29.5,165.5 C 29.2624,167.404 28.2624,168.738 26.5,169.5C 26.7376,167.596 27.7376,166.262 29.5,165.5 Z"/></g>
<g><path style="opacity:1" fill="#747474" d="M 872.5,173.5 C 874.698,173.12 876.365,173.787 877.5,175.5C 875.597,175.204 873.93,174.537 872.5,173.5 Z"/></g>
<g><path style="opacity:1" fill="#a3a3a3" d="M 949.5,171.5 C 950.906,171.973 951.573,172.973 951.5,174.5C 950.094,174.027 949.427,173.027 949.5,171.5 Z"/></g>
<g><path style="opacity:1" fill="#767676" d="M 951.5,174.5 C 952.906,174.973 953.573,175.973 953.5,177.5C 952.094,177.027 951.427,176.027 951.5,174.5 Z"/></g>
<g><path style="opacity:1" fill="#9f9f9f" d="M 887.5,179.5 C 889.027,179.427 890.027,180.094 890.5,181.5C 888.973,181.573 887.973,180.906 887.5,179.5 Z"/></g>
<g><path style="opacity:1" fill="#9e9e9e" d="M 954.5,178.5 C 955.906,178.973 956.573,179.973 956.5,181.5C 955.094,181.027 954.427,180.027 954.5,178.5 Z"/></g>
<g><path style="opacity:1" fill="#7b7b7b" d="M 19.5,179.5 C 19.573,181.027 18.9063,182.027 17.5,182.5C 17.427,180.973 18.0937,179.973 19.5,179.5 Z"/></g>
<g><path style="opacity:1" fill="#808080" d="M 892.5,182.5 C 894.027,182.427 895.027,183.094 895.5,184.5C 893.973,184.573 892.973,183.906 892.5,182.5 Z"/></g>
<g><path style="opacity:1" fill="#a0a0a0" d="M 956.5,181.5 C 957.906,181.973 958.573,182.973 958.5,184.5C 957.094,184.027 956.427,183.027 956.5,181.5 Z"/></g>
<g><path style="opacity:1" fill="#a5a5a5" d="M 17.5,182.5 C 17.573,184.027 16.9063,185.027 15.5,185.5C 15.427,183.973 16.0937,182.973 17.5,182.5 Z"/></g>
<g><path style="opacity:1" fill="#767676" d="M 895.5,184.5 C 897.404,184.738 898.738,185.738 899.5,187.5C 897.596,187.262 896.262,186.262 895.5,184.5 Z"/></g>
<g><path style="opacity:1" fill="#939393" d="M 959.5,186.5 C 960.906,186.973 961.573,187.973 961.5,189.5C 960.094,189.027 959.427,188.027 959.5,186.5 Z"/></g>
<g><path style="opacity:1" fill="#979797" d="M 901.5,189.5 C 903.749,190.08 905.415,191.413 906.5,193.5C 904.251,192.92 902.585,191.587 901.5,189.5 Z"/></g>
<g><path style="opacity:1" fill="#7f7f7f" d="M 669.5,190.5 C 671.027,190.427 672.027,191.094 672.5,192.5C 670.973,192.573 669.973,191.906 669.5,190.5 Z"/></g>
<g><path style="opacity:1" fill="#979797" d="M 252.5,191.5 C 254.027,191.427 255.027,192.094 255.5,193.5C 253.973,193.573 252.973,192.906 252.5,191.5 Z"/></g>
<g><path style="opacity:1" fill="#848484" d="M 917.5,207.5 C 919.446,208.035 920.446,209.368 920.5,211.5C 919.026,210.564 918.026,209.23 917.5,207.5 Z"/></g>
<g><path style="opacity:1" fill="#6f6f6f" d="M 5.5,208.5 C 5.59047,211.152 4.92381,213.485 3.5,215.5C 3.40953,212.848 4.07619,210.515 5.5,208.5 Z"/></g>
<g><path style="opacity:1" fill="#797979" d="M 972.5,213.5 C 973.924,215.515 974.59,217.848 974.5,220.5C 973.076,218.485 972.41,216.152 972.5,213.5 Z"/></g>
<g><path style="opacity:1" fill="#787878" d="M 974.5,220.5 C 975.924,222.515 976.59,224.848 976.5,227.5C 975.076,225.485 974.41,223.152 974.5,220.5 Z"/></g>
<g><path style="opacity:1" fill="#030303" d="M 529.5,445.5 C 529.427,447.027 530.094,448.027 531.5,448.5C 535.469,452.983 537.636,458.317 538,464.5C 538.667,568.167 538.667,671.833 538,775.5C 537.232,791.58 532.898,806.58 525,820.5C 517.892,830.473 508.392,834.473 496.5,832.5C 494.485,831.076 492.152,830.41 489.5,830.5C 480.334,825.823 474.167,818.489 471,808.5C 467.558,798.79 465.725,788.79 465.5,778.5C 465.5,709.833 465.5,641.167 465.5,572.5C 439.167,572.5 412.833,572.5 386.5,572.5C 382.956,572.868 379.956,571.868 377.5,569.5C 377.027,568.094 376.027,567.427 374.5,567.5C 370.444,563.389 367.944,558.389 367,552.5C 366.333,546.5 366.333,540.5 367,534.5C 367.156,531.809 367.989,529.476 369.5,527.5C 370.906,527.027 371.573,526.027 371.5,524.5C 373.579,522.127 376.246,520.794 379.5,520.5C 382.152,520.59 384.485,519.924 386.5,518.5C 395.175,516.631 403.842,514.631 412.5,512.5C 416.162,512.277 419.495,511.277 422.5,509.5C 431.837,506.828 440.837,503.161 449.5,498.5C 451.749,497.92 453.415,496.587 454.5,494.5C 455.833,492.5 457.5,490.833 459.5,489.5C 460.906,489.027 461.573,488.027 461.5,486.5C 461.833,485.5 462.5,484.833 463.5,484.5C 464.906,484.027 465.573,483.027 465.5,481.5C 466.906,481.027 467.573,480.027 467.5,478.5C 468.906,478.027 469.573,477.027 469.5,475.5C 469.328,474.508 469.662,473.842 470.5,473.5C 471.906,473.027 472.573,472.027 472.5,470.5C 472.66,468.847 473.326,467.514 474.5,466.5C 475.906,466.027 476.573,465.027 476.5,463.5C 477.906,463.027 478.573,462.027 478.5,460.5C 478.427,458.973 479.094,457.973 480.5,457.5C 481.906,457.027 482.573,456.027 482.5,454.5C 486.014,449.314 490.68,445.648 496.5,443.5C 499.152,443.59 501.485,442.924 503.5,441.5C 509.418,440.379 515.418,440.212 521.5,441C 524.684,441.754 527.351,443.254 529.5,445.5 Z"/></g>
<g><path style="opacity:1" fill="#6d6d6d" d="M 503.5,441.5 C 501.485,442.924 499.152,443.59 496.5,443.5C 498.515,442.076 500.848,441.41 503.5,441.5 Z"/></g>
<g><path style="opacity:1" fill="#929292" d="M 529.5,445.5 C 530.906,445.973 531.573,446.973 531.5,448.5C 530.094,448.027 529.427,447.027 529.5,445.5 Z"/></g>
<g><path style="opacity:1" fill="#878787" d="M 482.5,454.5 C 482.573,456.027 481.906,457.027 480.5,457.5C 480.427,455.973 481.094,454.973 482.5,454.5 Z"/></g>
<g><path style="opacity:1" fill="#858585" d="M 478.5,460.5 C 478.573,462.027 477.906,463.027 476.5,463.5C 476.427,461.973 477.094,460.973 478.5,460.5 Z"/></g>
<g><path style="opacity:1" fill="#a1a1a1" d="M 476.5,463.5 C 476.573,465.027 475.906,466.027 474.5,466.5C 474.427,464.973 475.094,463.973 476.5,463.5 Z"/></g>
<g><path style="opacity:1" fill="#8c8c8c" d="M 472.5,470.5 C 472.573,472.027 471.906,473.027 470.5,473.5C 470.427,471.973 471.094,470.973 472.5,470.5 Z"/></g>
<g><path style="opacity:1" fill="#878787" d="M 469.5,475.5 C 469.573,477.027 468.906,478.027 467.5,478.5C 467.427,476.973 468.094,475.973 469.5,475.5 Z"/></g>
<g><path style="opacity:1" fill="#8f8f8f" d="M 467.5,478.5 C 467.573,480.027 466.906,481.027 465.5,481.5C 465.427,479.973 466.094,478.973 467.5,478.5 Z"/></g>
<g><path style="opacity:1" fill="#888888" d="M 465.5,481.5 C 465.573,483.027 464.906,484.027 463.5,484.5C 463.427,482.973 464.094,481.973 465.5,481.5 Z"/></g>
<g><path style="opacity:1" fill="#999999" d="M 461.5,486.5 C 461.573,488.027 460.906,489.027 459.5,489.5C 459.427,487.973 460.094,486.973 461.5,486.5 Z"/></g>
<g><path style="opacity:1" fill="#5c5c5c" d="M 454.5,494.5 C 453.415,496.587 451.749,497.92 449.5,498.5C 450.585,496.413 452.251,495.08 454.5,494.5 Z"/></g>
<g><path style="opacity:1" fill="#565656" d="M 422.5,509.5 C 419.495,511.277 416.162,512.277 412.5,512.5C 415.505,510.723 418.838,509.723 422.5,509.5 Z"/></g>
<g><path style="opacity:1" fill="#686868" d="M 386.5,518.5 C 384.485,519.924 382.152,520.59 379.5,520.5C 381.515,519.076 383.848,518.41 386.5,518.5 Z"/></g>
<g><path style="opacity:1" fill="#a9a9a9" d="M 371.5,524.5 C 371.573,526.027 370.906,527.027 369.5,527.5C 369.427,525.973 370.094,524.973 371.5,524.5 Z"/></g>
<g><path style="opacity:1" fill="#a6a6a6" d="M 374.5,567.5 C 376.027,567.427 377.027,568.094 377.5,569.5C 375.973,569.573 374.973,568.906 374.5,567.5 Z"/></g>
<g><path style="opacity:1" fill="#636363" d="M 386.5,572.5 C 412.833,572.5 439.167,572.5 465.5,572.5C 465.5,641.167 465.5,709.833 465.5,778.5C 464.501,710.335 464.167,642.002 464.5,573.5C 438.328,573.831 412.328,573.498 386.5,572.5 Z"/></g>
<g><path style="opacity:1" fill="#757575" d="M 489.5,830.5 C 492.152,830.41 494.485,831.076 496.5,832.5C 493.848,832.59 491.515,831.924 489.5,830.5 Z"/></g>
<g><path style="opacity:1" fill="#929292" d="M 922.5,885.5 C 922.573,887.027 921.906,888.027 920.5,888.5C 920.427,886.973 921.094,885.973 922.5,885.5 Z"/></g>
<g><path style="opacity:1" fill="#747474" d="M 920.5,888.5 C 920.573,890.027 919.906,891.027 918.5,891.5C 918.427,889.973 919.094,888.973 920.5,888.5 Z"/></g>
<g><path style="opacity:1" fill="#979797" d="M 58.5,890.5 C 59.9063,890.973 60.573,891.973 60.5,893.5C 59.0937,893.027 58.427,892.027 58.5,890.5 Z"/></g>
<g><path style="opacity:1" fill="#9a9a9a" d="M 60.5,893.5 C 61.9063,893.973 62.573,894.973 62.5,896.5C 61.0937,896.027 60.427,895.027 60.5,893.5 Z"/></g>
<g><path style="opacity:1" fill="#767676" d="M 62.5,896.5 C 63.9063,896.973 64.573,897.973 64.5,899.5C 63.0937,899.027 62.427,898.027 62.5,896.5 Z"/></g>
<g><path style="opacity:1" fill="#565656" d="M 915.5,894.5 C 914.5,897.5 912.5,899.5 909.5,900.5C 911.167,898.167 913.167,896.167 915.5,894.5 Z"/></g>
<g><path style="opacity:1" fill="#585858" d="M 908.5,901.5 C 907.415,903.587 905.749,904.92 903.5,905.5C 904.585,903.413 906.251,902.08 908.5,901.5 Z"/></g>
<g><path style="opacity:1" fill="#a1a1a1" d="M 69.5,904.5 C 71.8333,906.167 73.8333,908.167 75.5,910.5C 72.5,909.5 70.5,907.5 69.5,904.5 Z"/></g>
<g><path style="opacity:1" fill="#7f7f7f" d="M 898.5,908.5 C 898.027,909.906 897.027,910.573 895.5,910.5C 895.973,909.094 896.973,908.427 898.5,908.5 Z"/></g>
<g><path style="opacity:1" fill="#757575" d="M 87.5,919.5 C 88.7095,919.932 89.7095,920.599 90.5,921.5C 88.8212,921.715 87.8212,921.048 87.5,919.5 Z"/></g>
<g><path style="opacity:1" fill="#606060" d="M 871.5,921.5 C 867.498,923.61 863.165,924.943 858.5,925.5C 862.502,923.39 866.835,922.057 871.5,921.5 Z"/></g>
<g><path style="opacity:1" fill="#acacac" d="M 33.5,939.5 C 34.8333,939.5 35.5,940.167 35.5,941.5C 34.5,941.167 33.8333,940.5 33.5,939.5 Z"/></g>
<g><path style="opacity:1" fill="#a6a6a6" d="M 35.5,941.5 C 38.0892,942.419 40.0892,944.086 41.5,946.5C 38.9108,945.581 36.9108,943.914 35.5,941.5 Z"/></g>
<g><path style="opacity:1" fill="#7d7d7d" d="M 44.5,949.5 C 46.0269,949.427 47.0269,950.094 47.5,951.5C 45.9731,951.573 44.9731,950.906 44.5,949.5 Z"/></g>
<g><path style="opacity:1" fill="#787878" d="M 55.5,957.5 C 57.0269,957.427 58.0269,958.094 58.5,959.5C 56.9731,959.573 55.9731,958.906 55.5,957.5 Z"/></g>
</svg>
