<?xml version="1.0" standalone="no"?>
<!DOCTYPE svg PUBLIC "-//W3C//DTD SVG 20010904//EN"
 "http://www.w3.org/TR/2001/REC-SVG-20010904/DTD/svg10.dtd">
<svg version="1.0" xmlns="http://www.w3.org/2000/svg"
 width="512.000000pt" height="512.000000pt" viewBox="0 0 512.000000 512.000000"
 preserveAspectRatio="xMidYMid meet">

<g transform="translate(0.000000,512.000000) scale(0.100000,-0.100000)"
fill="#000000" stroke="none">
<path d="M2144 4892 c-216 -125 -399 -233 -408 -241 -14 -12 -16 -64 -16 -490
0 -367 3 -481 13 -493 6 -9 188 -118 404 -242 281 -162 401 -226 423 -226 22
0 142 64 423 226 216 124 398 233 405 242 9 12 12 126 12 492 0 442 -1 478
-17 492 -10 9 -72 47 -138 85 -66 39 -242 140 -391 226 -151 88 -282 157 -295
157 -13 -1 -200 -103 -415 -228z m710 -113 c155 -89 286 -167 293 -173 9 -8
-63 -54 -287 -184 l-299 -172 -300 172 c-165 95 -296 176 -292 181 16 16 577
336 590 337 8 0 141 -73 295 -161z m-669 -497 l290 -168 3 -348 c2 -277 0
-347 -10 -343 -7 2 -141 79 -298 170 l-285 164 -3 347 c-1 190 1 346 5 346 5
0 139 -76 298 -168z m1053 -179 l-3 -346 -290 -168 c-159 -93 -293 -169 -298
-169 -4 0 -6 156 -5 347 l3 347 290 167 c160 93 293 168 298 169 4 0 6 -156 5
-347z"/>
<path d="M2505 2795 c-25 -24 -25 -25 -25 -230 l0 -205 -918 0 -919 0 -21 -23
c-21 -23 -22 -30 -22 -296 l0 -272 25 -24 c26 -27 70 -32 96 -12 35 27 39 53
39 261 l0 206 860 0 860 0 0 -215 c0 -216 0 -216 25 -240 15 -16 36 -25 55
-25 19 0 40 9 55 25 25 24 25 24 25 240 l0 215 860 0 860 0 0 -206 c0 -208 4
-234 39 -261 26 -20 70 -15 96 12 l25 24 0 274 c0 273 0 274 -23 295 l-23 22
-917 0 -917 0 0 205 c0 205 0 206 -25 230 -15 16 -36 25 -55 25 -19 0 -40 -9
-55 -25z"/>
<path d="M345 1360 c-171 -98 -318 -189 -327 -201 -16 -19 -18 -54 -18 -390 0
-368 0 -368 22 -393 30 -32 628 -376 655 -376 21 0 612 334 651 369 l22 19 0
379 c0 288 -3 383 -12 396 -7 9 -139 89 -293 178 -322 185 -348 199 -372 199
-10 0 -157 -81 -328 -180z m583 -138 c100 -57 180 -107 177 -111 -3 -3 -101
-60 -217 -127 l-210 -122 -219 126 -218 126 97 57 c53 31 151 88 217 126 l120
70 35 -20 c19 -10 117 -67 218 -125z m-547 -373 c116 -67 213 -127 215 -133 2
-6 3 -120 2 -253 l-3 -242 -215 124 -215 123 -3 251 c-1 138 0 251 3 251 3 0
101 -55 216 -121z m805 -374 c-2 -6 -89 -60 -192 -120 -104 -60 -199 -115
-211 -123 l-23 -14 0 253 0 254 213 122 212 123 3 -242 c1 -134 1 -247 -2
-253z"/>
<path d="M2500 1516 c-253 -138 -597 -346 -607 -367 -18 -35 -18 -724 0 -758
15 -31 630 -390 667 -390 38 0 651 358 667 389 18 36 18 724 0 760 -8 17 -109
80 -321 203 -170 98 -321 180 -335 183 -16 3 -43 -4 -71 -20z m280 -276 c113
-65 204 -122 204 -126 -1 -5 -97 -63 -213 -130 l-211 -122 -212 123 c-117 68
-213 126 -213 130 0 10 407 244 425 244 8 0 107 -53 220 -119z m-514 -392
l214 -123 0 -254 0 -253 -22 14 c-13 8 -112 65 -220 127 l-198 114 0 248 c0
137 3 249 6 249 4 0 103 -55 220 -122z m814 -127 l0 -249 -187 -108 c-104 -59
-203 -116 -220 -127 l-33 -19 0 254 1 253 212 122 c117 67 215 122 220 123 4
0 7 -112 7 -249z"/>
<path d="M4395 1523 c-143 -77 -603 -348 -612 -361 -10 -12 -13 -106 -13 -392
0 -286 3 -380 13 -392 6 -9 138 -89 292 -178 320 -185 348 -200 372 -200 26 0
623 346 651 376 22 25 22 26 22 394 0 368 0 369 -22 394 -29 32 -628 376 -654
376 -10 -1 -32 -8 -49 -17z m447 -387 l37 -22 -216 -125 c-119 -68 -220 -123
-225 -121 -23 6 -428 245 -424 249 3 3 100 60 217 127 l212 123 181 -105 c100
-57 198 -114 218 -126z m-689 -292 l207 -118 0 -253 0 -252 -212 122 -213 123
-3 252 c-1 140 1 252 5 249 5 -2 101 -57 216 -123z m805 -125 l-3 -251 -215
-124 -215 -124 -3 247 c-1 137 2 251 7 256 11 11 414 246 424 246 4 1 6 -112
5 -250z"/>
</g>
</svg>
