<?xml version="1.0" standalone="no"?>
<!DOCTYPE svg PUBLIC "-//W3C//DTD SVG 20010904//EN"
 "http://www.w3.org/TR/2001/REC-SVG-20010904/DTD/svg10.dtd">
<svg version="1.0" xmlns="http://www.w3.org/2000/svg"
 width="512.000000pt" height="512.000000pt" viewBox="0 0 512.000000 512.000000"
 preserveAspectRatio="xMidYMid meet">

<g transform="translate(0.000000,512.000000) scale(0.100000,-0.100000)"
fill="#000000" stroke="none">
<path d="M3565 4835 c-380 -70 -678 -338 -792 -712 -24 -79 -26 -105 -27 -248
l-1 -160 39 -115 c48 -138 155 -357 264 -537 l80 -133 -1043 0 c-1012 0 -1045
-1 -1106 -20 -35 -11 -86 -37 -114 -58 -100 -76 -96 -65 -461 -1127 l-337
-980 -1 -90 c-1 -81 2 -96 31 -157 40 -85 106 -151 191 -191 l67 -32 2205 0
2205 0 67 32 c85 40 151 106 191 191 29 61 32 76 31 157 l-1 90 -337 980
c-186 539 -349 998 -363 1020 -14 22 -37 52 -50 67 l-25 27 85 133 c178 280
305 543 348 724 27 113 23 275 -11 404 -89 348 -369 627 -716 716 -127 32
-304 40 -419 19z m338 -607 c164 -76 270 -271 239 -439 -30 -163 -135 -283
-291 -334 -81 -26 -207 -18 -286 20 -259 124 -324 461 -127 660 92 94 175 126
312 122 78 -2 105 -8 153 -29z m-643 -1490 c51 -75 261 -359 343 -464 l19 -24
-589 0 c-656 0 -664 -1 -760 -66 -218 -149 -193 -479 45 -596 l67 -33 775 -5
c882 -6 825 0 926 -93 79 -71 107 -131 112 -237 3 -71 0 -95 -19 -145 -30 -81
-112 -163 -194 -196 l-60 -24 -1175 -3 -1175 -2 -17 -21 c-23 -27 -22 -35 2
-59 20 -20 33 -20 1183 -20 1265 0 1214 -2 1329 56 159 81 263 290 230 465
-13 72 -57 170 -97 218 -46 53 -120 107 -182 133 l-58 23 -780 5 c-779 5 -780
5 -821 27 -48 25 -101 83 -120 129 -22 52 -18 141 10 199 28 60 56 87 116 114
44 20 62 21 702 21 443 0 665 3 680 11 25 11 217 252 369 464 l98 136 24 -33
c13 -18 29 -42 35 -54 6 -12 160 -455 342 -985 294 -855 331 -971 332 -1027 1
-110 -64 -206 -171 -256 l-46 -21 -2175 0 -2175 0 -46 21 c-107 50 -172 146
-171 257 0 55 37 169 331 1025 182 530 340 980 350 1000 35 68 107 122 188
141 21 5 515 9 1098 10 l1061 1 64 -92z"/>
<path d="M1095 1984 c-202 -49 -354 -262 -331 -462 8 -70 70 -226 137 -346 64
-113 249 -396 272 -415 42 -34 79 7 238 257 108 171 201 359 223 456 16 66 17
88 8 144 -31 186 -169 333 -350 371 -68 14 -122 13 -197 -5z m260 -126 c111
-57 185 -177 185 -299 0 -104 -83 -281 -255 -545 -62 -96 -78 -114 -90 -104
-47 39 -266 424 -306 536 -58 167 14 337 176 416 55 27 67 29 150 25 72 -3
100 -8 140 -29z"/>
<path d="M1166 1624 c-10 -9 -16 -33 -16 -59 0 -49 19 -75 55 -75 30 0 55 35
55 75 0 62 -56 98 -94 59z"/>
</g>
</svg>
