<?xml version="1.0" standalone="no"?>
<!DOCTYPE svg PUBLIC "-//W3C//DTD SVG 20010904//EN"
 "http://www.w3.org/TR/2001/REC-SVG-20010904/DTD/svg10.dtd">
<svg version="1.0" xmlns="http://www.w3.org/2000/svg"
 width="512.000000pt" height="512.000000pt" viewBox="0 0 512.000000 512.000000"
 preserveAspectRatio="xMidYMid meet">

<g transform="translate(0.000000,512.000000) scale(0.100000,-0.100000)"
fill="#000000" stroke="none">
<path d="M2443 5105 c-129 -35 -246 -128 -305 -240 l-33 -64 -202 -3 c-221 -3
-227 -5 -277 -72 -20 -26 -21 -41 -21 -246 0 -241 1 -243 69 -294 27 -21 34
-21 886 -21 852 0 859 0 886 21 68 51 69 53 69 294 0 205 -1 220 -21 246 -50
67 -56 69 -277 72 l-202 3 -33 64 c-99 190 -335 295 -539 240z"/>
<path d="M884 4471 c-47 -12 -133 -62 -160 -94 -14 -17 -37 -53 -52 -81 l-27
-51 0 -2006 0 -2005 30 -59 c37 -73 114 -138 188 -160 47 -13 244 -15 1718
-13 l1665 3 59 30 c73 37 138 114 160 188 13 47 15 277 13 2037 l-3 1985 -21
46 c-31 67 -87 124 -152 156 -56 27 -61 28 -259 31 l-203 3 0 -108 c0 -174
-38 -280 -137 -384 -61 -64 -141 -111 -228 -134 -87 -22 -1741 -23 -1828 0
-173 45 -307 179 -352 350 -9 36 -15 102 -15 167 l0 108 -182 -1 c-101 -1
-197 -4 -214 -8z m1764 -1298 c59 -44 67 -65 70 -194 l4 -119 49 -14 c81 -25
178 -77 224 -122 34 -33 45 -51 50 -87 16 -105 -56 -187 -163 -187 -26 0 -59
14 -111 45 -122 73 -251 84 -369 30 -213 -98 -213 -313 0 -410 44 -20 83 -28
170 -35 220 -18 338 -68 463 -194 86 -87 124 -150 150 -251 68 -264 -111 -542
-412 -640 l-51 -17 -4 -118 c-3 -128 -11 -149 -72 -194 -39 -29 -133 -29 -172
0 -61 45 -69 66 -72 194 l-4 118 -76 27 c-91 32 -194 95 -224 138 -31 43 -32
134 -2 174 35 47 82 73 133 73 37 0 61 -9 120 -45 122 -73 251 -84 369 -30
213 98 213 313 0 410 -44 20 -83 28 -170 35 -219 18 -339 68 -463 194 -86 87
-124 150 -150 251 -68 264 111 542 413 640 l52 17 0 104 c0 137 21 186 95 220
40 19 119 12 153 -13z"/>
</g>
</svg>
