<?xml version="1.0" standalone="no"?>
<!DOCTYPE svg PUBLIC "-//W3C//DTD SVG 20010904//EN"
 "http://www.w3.org/TR/2001/REC-SVG-20010904/DTD/svg10.dtd">
<svg version="1.0" xmlns="http://www.w3.org/2000/svg"
 width="512.000000pt" height="512.000000pt" viewBox="0 0 512.000000 512.000000"
 preserveAspectRatio="xMidYMid meet">

<g transform="translate(0.000000,512.000000) scale(0.100000,-0.100000)"
fill="#000000" stroke="none">
<path d="M2350 5001 c-283 -62 -507 -234 -633 -486 -94 -189 -114 -382 -71
-682 l7 -43 -619 0 c-358 0 -649 -5 -689 -10 -172 -25 -302 -148 -335 -315 -8
-43 -10 -298 -8 -906 l3 -845 38 -76 c60 -122 161 -197 294 -218 32 -6 126
-10 210 -10 l152 0 19 -27 c10 -16 74 -129 142 -253 67 -124 134 -237 148
-253 49 -52 136 -55 188 -6 13 12 87 138 166 280 l142 259 78 0 78 0 0 -539
c0 -357 4 -549 11 -568 14 -38 57 -83 96 -99 26 -11 118 -14 454 -14 406 0
423 1 458 21 44 25 77 71 87 122 l7 39 96 -4 c118 -4 140 -14 252 -114 165
-147 217 -164 505 -164 l203 0 20 26 c12 15 21 33 21 40 0 23 -22 63 -39 71
-9 4 -108 10 -221 13 -201 5 -206 6 -264 34 -32 16 -88 57 -125 91 -138 129
-198 155 -361 155 l-90 0 0 578 0 579 98 6 c169 11 242 44 336 151 102 118
130 159 345 516 111 184 216 347 232 363 53 49 133 27 186 -52 42 -62 34 -109
-68 -398 -105 -298 -114 -349 -79 -431 14 -31 40 -67 63 -88 73 -62 93 -64
560 -64 464 0 469 -1 508 -64 24 -40 24 -81 -1 -121 -40 -64 -44 -65 -494 -65
-393 0 -407 -1 -426 -20 -33 -33 -30 -75 6 -107 25 -23 26 -23 370 -23 381 0
386 -1 424 -63 36 -59 18 -125 -44 -163 -28 -17 -61 -19 -389 -24 -340 -5
-359 -6 -373 -24 -21 -29 -18 -80 7 -102 20 -18 42 -19 320 -22 l299 -3 35
-35 c57 -56 47 -149 -19 -187 -15 -8 -112 -14 -317 -17 -274 -5 -299 -6 -318
-24 -26 -24 -29 -87 -4 -107 12 -11 75 -15 267 -19 278 -6 286 -7 326 -73 24
-39 25 -59 3 -104 -32 -68 -52 -73 -281 -73 -159 0 -209 -3 -231 -15 -46 -24
-54 -66 -20 -109 l21 -27 242 3 c225 3 244 4 282 25 49 26 110 92 132 142 23
55 21 156 -6 215 l-22 48 44 39 c81 71 110 198 70 299 l-18 44 25 15 c13 8 43
34 66 58 72 73 93 205 48 293 -16 31 -16 34 1 43 11 5 40 31 66 58 49 49 78
119 78 184 0 96 -63 195 -154 243 l-51 27 -450 5 c-338 4 -456 8 -472 18 -28
16 -43 43 -43 77 0 20 126 399 165 497 4 10 50 52 102 94 114 91 329 306 419
418 147 181 281 415 349 606 54 152 103 395 91 446 -9 35 -56 56 -94 43 -37
-13 -47 -36 -68 -164 -24 -146 -68 -283 -135 -424 -112 -235 -227 -391 -459
-623 -92 -93 -172 -168 -178 -168 -5 0 -12 13 -15 28 -9 44 -69 123 -121 159
-88 61 -187 70 -275 27 -62 -31 -76 -49 -203 -259 l-93 -155 -5 513 c-5 503
-5 513 -28 568 -30 74 -82 139 -146 184 -103 71 -79 69 -801 75 l-650 5 -7 40
c-4 22 -12 101 -18 175 -10 116 -10 148 4 229 73 418 460 691 877 617 195 -35
364 -146 487 -320 87 -122 157 -159 254 -136 63 15 97 45 158 135 102 150 271
269 445 311 111 27 278 23 390 -10 239 -71 426 -251 502 -484 14 -43 34 -85
45 -94 46 -40 118 -8 118 52 0 64 -78 249 -141 335 -288 391 -847 488 -1249
215 -76 -52 -181 -159 -234 -240 -68 -102 -93 -103 -158 -7 -124 184 -320 323
-533 377 -117 30 -287 35 -395 11z m780 -1387 c54 -25 100 -69 126 -121 18
-36 19 -73 22 -670 l2 -631 -59 -89 c-33 -48 -88 -121 -122 -161 -57 -66 -69
-74 -127 -92 -37 -12 -93 -20 -132 -20 l-68 0 -6 44 c-9 55 -40 104 -86 130
-34 20 -49 21 -460 21 l-425 0 -43 -25 c-26 -14 -54 -42 -68 -66 -23 -39 -24
-50 -24 -207 l0 -167 -90 0 c-102 0 -154 -19 -187 -67 -11 -16 -73 -125 -138
-243 -65 -118 -124 -223 -130 -233 -11 -15 -30 14 -140 215 -127 231 -167 290
-215 311 -14 6 -112 14 -225 17 -183 5 -204 7 -248 28 -56 28 -101 79 -122
141 -22 65 -23 1676 -1 1739 30 85 98 144 187 161 24 5 649 8 1389 8 1341 -2
1345 -2 1390 -23z m-990 -2504 l0 -770 -162 2 -163 3 -3 754 c-1 549 1 758 9
767 9 11 48 14 165 14 l154 0 0 -770z m469 756 c8 -9 10 -218 9 -767 l-3 -754
-162 -3 -163 -2 0 770 0 770 154 0 c117 0 156 -3 165 -14z"/>
<path d="M940 2838 c-60 -10 -118 -53 -155 -113 -26 -42 -30 -58 -30 -120 0
-62 4 -78 30 -121 44 -70 109 -107 194 -112 57 -3 73 0 120 25 125 66 166 217
91 336 -53 84 -147 123 -250 105z m95 -154 c19 -8 45 -55 45 -83 0 -11 -12
-33 -26 -50 -64 -77 -182 -3 -144 89 7 17 20 35 29 40 18 11 72 13 96 4z"/>
<path d="M1639 2840 c-153 -26 -239 -200 -169 -340 111 -221 451 -140 450 107
-1 146 -135 257 -281 233z m106 -176 c34 -36 33 -83 -1 -118 -56 -55 -148 -19
-148 59 0 78 96 116 149 59z"/>
<path d="M2327 2838 c-190 -40 -255 -279 -110 -409 52 -47 99 -62 179 -57 75
5 130 37 178 106 24 34 31 56 34 106 2 36 -1 81 -8 101 -15 44 -71 110 -113
131 -40 21 -115 32 -160 22z m118 -181 c40 -57 -1 -137 -70 -137 -77 0 -116
90 -63 147 35 38 103 33 133 -10z"/>
</g>
</svg>
