<?xml version="1.0" standalone="no"?>
<!DOCTYPE svg PUBLIC "-//W3C//DTD SVG 20010904//EN"
 "http://www.w3.org/TR/2001/REC-SVG-20010904/DTD/svg10.dtd">
<svg version="1.0" xmlns="http://www.w3.org/2000/svg"
 width="512.000000pt" height="512.000000pt" viewBox="0 0 512.000000 512.000000"
 preserveAspectRatio="xMidYMid meet">

<g transform="translate(0.000000,512.000000) scale(0.100000,-0.100000)"
fill="#000000" stroke="none">
<path d="M366 4898 c-58 -16 -129 -90 -145 -151 -12 -51 -7 -105 14 -147 7
-14 389 -495 849 -1070 l836 -1045 0 -1051 0 -1050 26 -53 c45 -90 139 -133
239 -110 48 11 66 28 514 473 311 310 469 474 482 501 17 38 19 76 19 665 l0
625 840 1050 c923 1154 882 1095 859 1204 -15 71 -82 142 -151 159 -63 16
-4323 15 -4382 0z"/>
</g>
</svg>
