<?xml version="1.0" standalone="no"?>
<!DOCTYPE svg PUBLIC "-//W3C//DTD SVG 20010904//EN"
 "http://www.w3.org/TR/2001/REC-SVG-20010904/DTD/svg10.dtd">
<svg version="1.0" xmlns="http://www.w3.org/2000/svg"
 width="512.000000pt" height="512.000000pt" viewBox="0 0 512.000000 512.000000"
 preserveAspectRatio="xMidYMid meet">

<g transform="translate(0.000000,512.000000) scale(0.100000,-0.100000)"
fill="#000000" stroke="none">
<path d="M2325 4949 c-254 -24 -579 -117 -819 -234 -232 -113 -504 -310 -672
-487 -626 -659 -832 -1574 -548 -2426 239 -719 797 -1277 1514 -1516 1022
-340 2128 31 2738 917 560 814 560 1900 0 2714 -497 722 -1337 1114 -2213
1032z m450 -409 c362 -42 703 -179 997 -401 106 -80 287 -261 367 -367 549
-726 549 -1698 0 -2424 -80 -106 -261 -287 -367 -367 -618 -467 -1430 -542
-2113 -195 -963 490 -1360 1657 -895 2629 103 215 219 380 390 551 316 315
708 509 1151 568 122 17 349 19 470 6z"/>
<path d="M1602 3300 c-152 -36 -205 -240 -90 -347 59 -55 19 -53 1043 -53
1037 0 971 -4 1038 59 100 92 78 253 -43 321 l-45 25 -935 2 c-514 0 -950 -2
-968 -7z"/>
<path d="M1589 2206 c-91 -32 -139 -101 -139 -197 0 -68 29 -122 88 -164 l44
-30 946 -3 c671 -2 958 0 985 8 21 6 56 27 78 47 116 105 67 300 -86 342 -62
17 -1868 14 -1916 -3z"/>
</g>
</svg>
