<?xml version="1.0" standalone="no"?>
<!DOCTYPE svg PUBLIC "-//W3C//DTD SVG 20010904//EN"
 "http://www.w3.org/TR/2001/REC-SVG-20010904/DTD/svg10.dtd">
<svg version="1.0" xmlns="http://www.w3.org/2000/svg"
 width="512.000000pt" height="512.000000pt" viewBox="0 0 512.000000 512.000000"
 preserveAspectRatio="xMidYMid meet">

<g transform="translate(0.000000,512.000000) scale(0.100000,-0.100000)"
fill="#000000" stroke="none">
<path d="M2355 4839 c-309 -48 -584 -187 -805 -409 -205 -205 -340 -454 -402
-743 -17 -82 -22 -136 -22 -272 0 -152 3 -183 28 -289 61 -262 171 -521 364
-861 168 -296 426 -676 686 -1010 247 -317 275 -345 356 -345 80 0 109 28 345
331 560 719 928 1363 1046 1826 41 161 53 269 45 406 -19 367 -167 698 -426
957 -199 199 -431 327 -709 391 -99 23 -405 34 -506 18z m387 -868 c232 -74
400 -304 402 -551 1 -164 -54 -300 -169 -416 -234 -235 -595 -234 -830 1 -114
114 -170 250 -169 415 1 218 128 420 327 522 119 60 302 72 439 29z"/>
<path d="M1370 1694 c-402 -139 -629 -331 -670 -565 -30 -173 73 -365 266
-496 449 -305 1386 -441 2219 -322 719 102 1175 358 1236 693 31 174 -75 368
-275 501 -164 109 -469 233 -540 220 -47 -9 -93 -39 -117 -77 -27 -43 -23
-131 8 -174 26 -36 53 -50 204 -104 147 -52 268 -120 339 -190 93 -90 89 -143
-19 -243 -177 -163 -608 -293 -1116 -337 -156 -13 -529 -13 -692 1 -521 43
-961 180 -1137 355 -71 71 -79 125 -28 192 58 78 236 180 420 241 109 36 143
58 166 105 36 76 10 167 -59 207 -57 33 -92 32 -205 -7z"/>
</g>
</svg>
