<?xml version="1.0" standalone="no"?>
<!DOCTYPE svg PUBLIC "-//W3C//DTD SVG 20010904//EN"
 "http://www.w3.org/TR/2001/REC-SVG-20010904/DTD/svg10.dtd">
<svg version="1.0" xmlns="http://www.w3.org/2000/svg"
 width="512.000000pt" height="512.000000pt" viewBox="0 0 512.000000 512.000000"
 preserveAspectRatio="xMidYMid meet">

<g transform="translate(0.000000,512.000000) scale(0.100000,-0.100000)"
fill="#000000" stroke="none">
<path d="M351 5109 c-168 -33 -308 -176 -341 -348 -6 -34 -10 -335 -10 -803 0
-640 2 -759 15 -817 30 -129 136 -252 262 -302 l58 -24 800 -3 c599 -2 811 0
845 9 157 42 277 162 319 319 9 34 11 246 9 845 l-3 800 -24 58 c-50 126 -173
232 -302 262 -58 13 -175 15 -826 14 -417 -1 -778 -5 -802 -10z"/>
<path d="M3130 5102 c-125 -33 -242 -137 -291 -259 l-24 -58 -3 -800 c-2 -599
0 -811 9 -845 42 -157 162 -277 319 -319 34 -9 246 -11 845 -9 l800 3 58 24
c126 50 232 173 262 302 13 58 15 177 15 817 0 468 -4 769 -10 803 -34 176
-173 315 -349 349 -34 6 -335 10 -810 9 -678 0 -763 -2 -821 -17z"/>
<path d="M310 2291 c-30 -10 -68 -25 -85 -33 -52 -28 -123 -97 -159 -157 -66
-108 -66 -103 -66 -937 0 -470 4 -771 10 -805 34 -176 173 -315 349 -349 34
-6 335 -10 803 -10 640 0 759 2 817 15 129 30 252 136 302 262 l24 58 3 800
c2 599 0 811 -9 845 -31 117 -116 227 -213 277 -107 54 -80 53 -931 52 -729 0
-794 -1 -845 -18z"/>
<path d="M3125 2295 c-153 -48 -263 -163 -304 -315 -9 -34 -11 -246 -9 -845
l3 -800 24 -58 c50 -126 173 -232 302 -262 58 -13 177 -15 817 -15 468 0 769
4 803 10 83 16 169 61 229 120 59 60 104 146 120 229 6 34 10 335 10 803 0
640 -2 759 -15 817 -30 129 -136 252 -262 302 l-58 24 -810 2 c-637 1 -819 -1
-850 -12z"/>
</g>
</svg>
