<?xml version="1.0" standalone="no"?>
<!DOCTYPE svg PUBLIC "-//W3C//DTD SVG 20010904//EN"
 "http://www.w3.org/TR/2001/REC-SVG-20010904/DTD/svg10.dtd">
<svg version="1.0" xmlns="http://www.w3.org/2000/svg"
 width="512.000000pt" height="512.000000pt" viewBox="0 0 512.000000 512.000000"
 preserveAspectRatio="xMidYMid meet">

<g transform="translate(0.000000,512.000000) scale(0.100000,-0.100000)"
fill="#000000" stroke="none">
<path d="M341 4999 c-114 -22 -236 -112 -287 -211 -57 -112 -54 -11 -54 -1919
0 -1138 4 -1775 10 -1809 32 -170 170 -308 339 -340 33 -6 327 -10 752 -10
l699 0 0 -160 0 -160 -73 0 c-92 0 -134 -20 -164 -80 -28 -55 -29 -82 -2 -136
15 -31 32 -48 63 -63 42 -21 54 -21 936 -21 882 0 894 0 936 21 31 15 48 32
63 63 27 54 26 81 -1 136 -31 60 -73 80 -165 80 l-73 0 0 160 0 160 699 0
c425 0 719 4 752 10 169 32 307 170 339 340 6 34 10 671 10 1809 0 1908 3
1807 -54 1919 -31 60 -108 137 -168 168 -113 57 27 54 -2338 53 -1196 -1
-2195 -5 -2219 -10z m4168 -504 c19 -11 43 -33 55 -48 l21 -28 0 -1357 0
-1357 -23 -33 c-48 -67 115 -62 -2002 -62 -2117 0 -1954 -5 -2002 62 l-23 33
-3 1345 c-2 1266 -1 1347 15 1379 22 41 58 70 104 81 19 4 887 7 1929 7 1876
-2 1895 -2 1929 -22z"/>
</g>
</svg>
