<?xml version="1.0" standalone="no"?>
<!DOCTYPE svg PUBLIC "-//W3C//DTD SVG 20010904//EN"
 "http://www.w3.org/TR/2001/REC-SVG-20010904/DTD/svg10.dtd">
<svg version="1.0" xmlns="http://www.w3.org/2000/svg"
 width="512.000000pt" height="512.000000pt" viewBox="0 0 512.000000 512.000000"
 preserveAspectRatio="xMidYMid meet">

<g transform="translate(0.000000,512.000000) scale(0.100000,-0.100000)"
fill="#000000" stroke="none">
<path d="M2470 5030 l0 -90 90 0 90 0 0 90 0 90 -90 0 -90 0 0 -90z"/>
<path d="M130 4940 l0 -90 46 0 c67 0 236 -37 323 -70 341 -132 590 -469 617
-832 l7 -88 88 0 89 0 0 54 c0 125 -55 337 -121 468 -127 251 -358 465 -610
564 -117 45 -299 84 -398 84 l-41 0 0 -90z"/>
<path d="M1120 4940 l0 -90 90 0 90 0 0 90 0 90 -90 0 -90 0 0 -90z"/>
<path d="M1480 4943 l0 -90 65 -7 c294 -30 531 -267 561 -561 l7 -65 90 0 90
0 -7 72 c-36 391 -343 698 -734 734 l-72 7 0 -90z"/>
<path d="M3525 5023 c-365 -51 -657 -359 -691 -731 l-7 -72 90 0 90 0 7 65
c30 294 267 531 561 561 l65 7 0 88 0 89 -42 -1 c-24 -1 -56 -4 -73 -6z"/>
<path d="M3820 4940 l0 -90 90 0 90 0 0 90 0 90 -90 0 -90 0 0 -90z"/>
<path d="M4810 5015 c-380 -62 -697 -293 -869 -633 -66 -131 -121 -343 -121
-468 l0 -54 89 0 88 0 7 88 c27 363 276 700 617 832 87 33 256 70 323 70 l46
0 0 90 0 90 -52 -1 c-29 -1 -87 -7 -128 -14z"/>
<path d="M2470 4670 l0 -90 90 0 90 0 0 90 0 90 -90 0 -90 0 0 -90z"/>
<path d="M1570 4310 l0 -90 90 0 90 0 0 90 0 90 -90 0 -90 0 0 -90z"/>
<path d="M2470 4310 l0 -90 90 0 90 0 0 90 0 90 -90 0 -90 0 0 -90z"/>
<path d="M3370 4310 l0 -90 90 0 90 0 0 90 0 90 -90 0 -90 0 0 -90z"/>
<path d="M1985 4021 c-72 -20 -162 -77 -211 -135 -50 -56 -94 -152 -104 -228
-5 -35 -10 -226 -10 -425 l0 -363 -553 0 c-488 0 -555 -2 -575 -16 -14 -10
-111 -192 -252 -475 -248 -494 -252 -507 -205 -554 24 -25 25 -25 219 -25
l195 0 3 -717 c4 -789 1 -744 66 -860 56 -101 183 -191 301 -213 74 -14 3328
-14 3402 0 118 22 245 112 301 213 65 116 62 71 66 860 l3 717 195 0 c194 0
195 0 219 25 47 47 43 60 -205 554 -141 283 -238 465 -252 475 -20 14 -87 16
-575 16 l-553 0 0 363 c0 199 -5 390 -10 425 -17 124 -90 237 -197 308 -110
73 -123 74 -698 73 -452 0 -517 -2 -570 -18z m1139 -185 c53 -27 104 -80 130
-135 20 -44 21 -60 21 -436 l0 -390 -177 -3 c-162 -2 -201 3 -169 22 18 11 60
116 71 176 13 72 7 105 -22 138 l-21 22 -397 0 -397 0 -21 -22 c-29 -33 -35
-66 -22 -138 11 -60 53 -165 71 -176 32 -19 -7 -24 -168 -22 l-178 3 -3 360
c-2 237 1 378 8 412 20 92 83 164 175 200 22 9 167 11 545 10 487 -2 517 -3
554 -21z m-314 -794 c0 -12 -52 -83 -76 -104 -38 -34 -115 -60 -174 -60 -59 0
-136 26 -174 60 -24 21 -76 92 -76 104 0 4 113 8 250 8 138 0 250 -4 250 -8z
m323 -707 l-178 -355 -1337 0 -1338 0 177 355 178 355 1337 0 1338 0 -177
-355z m1530 0 l177 -355 -440 0 -440 0 -175 350 c-96 192 -175 352 -175 355 0
3 197 5 438 5 l437 0 178 -355z m-1293 -1050 l0 -1105 -450 0 -450 0 0 509 c0
494 -1 509 -20 534 -35 44 -70 44 -166 -2 l-85 -41 -72 37 c-91 45 -123 45
-214 -1 l-72 -36 -82 40 c-93 45 -99 46 -138 26 -51 -27 -51 -30 -51 -566 l0
-500 -335 0 c-312 0 -338 1 -389 20 -66 25 -125 85 -152 156 -18 46 -19 84
-19 744 l0 695 1184 3 c1111 2 1186 3 1204 20 11 9 82 142 158 295 77 152 141
277 144 277 3 0 5 -497 5 -1105z m482 528 c7 -4 144 -10 303 -13 l290 -5 0
-695 c0 -660 -1 -698 -19 -744 -27 -71 -86 -131 -152 -156 -51 -19 -77 -20
-389 -20 l-335 0 1 1108 0 1107 144 -287 c79 -157 150 -290 157 -295z m-1652
-823 c11 0 36 7 55 14 l35 15 0 -420 0 -419 -270 0 -270 0 0 420 c0 231 3 420
8 420 4 -1 18 -7 32 -15 39 -22 70 -18 155 24 l80 38 77 -38 c43 -22 87 -39
98 -39z"/>
<path d="M2232 3568 c-30 -33 -36 -70 -18 -106 31 -60 121 -61 151 -1 21 40
19 63 -11 98 -33 39 -89 43 -122 9z"/>
<path d="M2766 3559 c-30 -35 -32 -58 -11 -98 30 -60 120 -59 151 1 48 92 -74
176 -140 97z"/>
<path d="M42 3864 l3 -89 74 -8 c166 -18 318 -92 436 -211 116 -119 187 -268
203 -430 l7 -71 88 -3 87 -3 0 51 c0 116 -48 279 -121 406 -139 244 -416 419
-697 441 l-83 6 3 -89z"/>
<path d="M4920 3939 c-82 -14 -211 -61 -297 -110 -107 -60 -262 -215 -322
-322 -73 -129 -121 -291 -121 -407 l0 -51 88 3 87 3 7 71 c16 162 87 311 203
430 118 119 270 193 436 211 l74 8 3 88 3 87 -53 -1 c-29 -1 -78 -5 -108 -10z"/>
<path d="M1122 3593 l3 -88 88 -3 87 -3 0 91 0 90 -90 0 -91 0 3 -87z"/>
<path d="M3820 3590 l0 -91 88 3 87 3 3 88 3 87 -91 0 -90 0 0 -90z"/>
<path d="M1122 3233 l3 -88 88 -3 87 -3 0 91 0 90 -90 0 -91 0 3 -87z"/>
<path d="M3820 3230 l0 -91 88 3 87 3 3 88 3 87 -91 0 -90 0 0 -90z"/>
</g>
</svg>
