<?xml version="1.0" standalone="no"?>
<!DOCTYPE svg PUBLIC "-//W3C//DTD SVG 20010904//EN"
 "http://www.w3.org/TR/2001/REC-SVG-20010904/DTD/svg10.dtd">
<svg version="1.0" xmlns="http://www.w3.org/2000/svg"
 width="512.000000pt" height="512.000000pt" viewBox="0 0 512.000000 512.000000"
 preserveAspectRatio="xMidYMid meet">

<g transform="translate(0.000000,512.000000) scale(0.100000,-0.100000)"
fill="#000000" stroke="none">
<path d="M3775 5113 c-53 -12 -156 -49 -205 -73 -164 -83 -306 -230 -380 -394
-60 -132 -62 -151 -69 -541 l-6 -360 -33 -67 c-39 -79 -87 -125 -180 -172 -77
-39 -116 -78 -133 -135 -26 -88 24 -199 115 -256 l49 -30 298 -3 297 -3 7 -36
c11 -60 61 -148 113 -200 160 -160 423 -161 583 -1 53 53 103 141 114 201 l7
36 297 3 298 3 49 30 c87 54 137 158 120 250 -10 51 -56 98 -141 145 -96 52
-134 86 -171 152 l-29 53 -6 355 c-8 389 -13 431 -77 572 -103 226 -315 404
-553 462 -62 15 -309 21 -364 9z m345 -169 c206 -61 373 -219 446 -420 34 -92
44 -208 44 -520 0 -244 2 -279 20 -337 38 -124 128 -226 250 -287 88 -44 97
-64 51 -111 l-29 -29 -962 0 -962 0 -29 29 c-48 49 -39 64 70 122 112 59 194
157 231 278 18 56 20 93 20 335 0 149 5 312 10 363 17 163 78 289 195 408 95
96 236 168 370 189 56 8 220 -3 275 -20z m65 -1886 c-22 -76 -121 -162 -200
-174 -67 -10 -129 3 -182 39 -47 32 -96 92 -108 135 l-6 22 251 0 251 0 -6
-22z"/>
<path d="M1510 3555 c-249 -50 -485 -208 -623 -418 -162 -244 -205 -561 -116
-839 71 -219 228 -418 427 -537 l62 -38 -100 -33 c-536 -175 -961 -631 -1105
-1185 -29 -112 -55 -297 -55 -391 0 -56 4 -68 25 -89 32 -33 78 -33 110 0 21
20 25 34 25 84 0 85 26 273 50 361 47 170 124 338 223 485 79 117 274 311 392
391 469 319 1064 361 1560 111 157 -78 271 -161 400 -291 278 -279 428 -615
452 -1011 5 -96 9 -112 29 -132 32 -32 78 -30 111 3 26 26 26 27 20 138 -41
703 -493 1302 -1153 1526 l-101 34 58 35 c239 146 406 386 460 664 22 108 15
298 -14 408 -46 177 -120 309 -245 441 -144 151 -316 245 -520 284 -90 17
-284 17 -372 -1z m377 -165 c283 -68 506 -276 591 -552 142 -459 -143 -942
-612 -1039 -429 -88 -844 172 -958 600 -29 108 -28 287 1 396 80 300 304 522
599 595 107 26 271 26 379 0z"/>
</g>
</svg>
