<?xml version="1.0" standalone="no"?>
<!DOCTYPE svg PUBLIC "-//W3C//DTD SVG 20010904//EN"
 "http://www.w3.org/TR/2001/REC-SVG-20010904/DTD/svg10.dtd">
<svg version="1.0" xmlns="http://www.w3.org/2000/svg"
 width="512.000000pt" height="512.000000pt" viewBox="0 0 512.000000 512.000000"
 preserveAspectRatio="xMidYMid meet">

<g transform="translate(0.000000,512.000000) scale(0.100000,-0.100000)"
fill="#000000" stroke="none">
<path d="M2501 5084 c-20 -25 -21 -39 -21 -241 0 -214 0 -214 25 -238 15 -16
36 -25 55 -25 19 0 40 9 55 25 25 24 25 24 25 238 0 202 -1 216 -21 241 -16
20 -29 26 -59 26 -30 0 -43 -6 -59 -26z"/>
<path d="M1714 4900 c-27 -11 -54 -48 -54 -74 0 -16 108 -213 188 -343 26 -41
57 -63 88 -63 23 0 74 55 74 81 0 12 -37 85 -81 163 -118 204 -131 224 -157
235 -27 13 -30 13 -58 1z"/>
<path d="M3340 4877 c-38 -19 -229 -351 -230 -399 0 -62 67 -98 117 -63 34 24
223 358 223 394 0 29 -29 71 -49 71 -5 0 -15 2 -23 5 -7 3 -24 -1 -38 -8z"/>
<path d="M2457 4359 c-276 -29 -533 -183 -689 -412 -56 -83 -114 -209 -139
-302 -31 -116 -36 -312 -11 -427 l18 -87 -36 -15 c-19 -7 -206 -80 -415 -161
-209 -81 -385 -152 -392 -157 -12 -10 -391 -659 -414 -710 -9 -21 -9 -33 1
-57 14 -34 21 -37 228 -117 l152 -59 0 -562 0 -562 22 -25 c17 -19 243 -110
887 -361 475 -184 876 -335 892 -335 15 0 416 151 891 335 649 252 869 342
886 361 l22 25 0 562 0 562 153 59 c206 79 213 83 227 117 10 24 10 36 1 57
-23 51 -402 700 -414 710 -7 5 -183 76 -392 157 -209 81 -396 154 -415 161
l-36 15 18 87 c25 115 20 311 -11 427 -23 88 -83 219 -132 293 -127 187 -329
334 -540 392 -63 17 -242 42 -274 38 -5 0 -45 -4 -88 -9z m303 -181 c527 -132
769 -756 470 -1211 -88 -134 -230 -249 -381 -310 -72 -29 -215 -57 -289 -57
-74 0 -217 28 -289 57 -202 81 -377 252 -454 446 -115 286 -53 620 156 843
205 220 496 306 787 232z m-1040 -1240 c145 -264 418 -448 726 -489 373 -49
770 154 954 489 13 23 28 42 34 42 13 0 599 -230 609 -240 8 -7 -1457 -580
-1482 -580 -23 0 -1492 573 -1486 579 10 9 589 239 606 240 8 1 26 -18 39 -41z
m-57 -607 c422 -164 770 -301 773 -304 4 -3 -273 -496 -300 -534 -1 0 -352
135 -781 302 -466 182 -779 309 -777 316 7 27 297 519 306 519 6 0 357 -135
779 -299z m2730 45 c80 -140 148 -259 149 -266 2 -7 -304 -131 -777 -315 -429
-167 -780 -303 -781 -302 -43 66 -304 530 -300 534 8 9 1530 601 1547 602 10
1 65 -85 162 -253z m-2847 -827 c419 -163 625 -238 640 -235 35 9 44 21 170
241 l119 207 3 -391 c1 -215 1 -566 0 -779 l-3 -388 -775 302 -775 301 -3 491
c-1 271 0 492 2 492 2 0 282 -108 622 -241z m2652 -251 l-3 -492 -775 -301
-775 -301 -3 388 c-1 213 -1 564 0 778 l3 391 124 -215 c99 -172 130 -217 153
-227 33 -13 -12 -30 818 295 245 96 448 175 453 175 4 1 6 -220 5 -491z"/>
<path d="M2895 3901 c-25 -12 -126 -106 -275 -255 -129 -130 -237 -236 -241
-236 -3 0 -38 40 -77 90 -72 90 -107 116 -172 131 -80 18 -186 -36 -224 -115
-24 -50 -21 -134 7 -183 12 -22 87 -122 166 -222 118 -148 152 -185 190 -203
64 -31 136 -29 193 5 24 14 192 175 374 359 360 362 360 362 352 464 -12 140
-164 225 -293 165z m123 -153 c31 -31 10 -56 -316 -381 -180 -180 -332 -327
-338 -327 -20 0 -44 27 -178 195 -144 180 -161 216 -113 234 12 5 28 6 35 3 7
-2 58 -61 114 -129 105 -130 133 -152 178 -133 14 6 147 132 295 280 267 267
293 288 323 258z"/>
<path d="M1103 4310 c-46 -19 -58 -93 -20 -127 38 -35 340 -205 374 -210 58
-10 103 61 73 117 -11 20 -369 230 -391 229 -8 0 -24 -4 -36 -9z"/>
<path d="M3769 4182 c-92 -53 -176 -106 -188 -116 -22 -20 -28 -65 -11 -96 12
-22 64 -42 88 -33 39 14 348 197 365 215 40 46 1 129 -60 128 -17 -1 -95 -40
-194 -98z"/>
<path d="M852 3477 c-45 -47 -17 -120 50 -132 18 -4 117 -5 220 -3 182 3 187
4 212 27 34 32 35 79 3 109 -22 21 -31 22 -243 22 -218 0 -221 0 -242 -23z"/>
<path d="M3742 3437 c-27 -29 -28 -77 -3 -108 19 -24 23 -24 222 -27 112 -2
213 -1 226 3 61 15 82 87 38 130 l-24 25 -219 0 c-215 0 -219 0 -240 -23z"/>
</g>
</svg>
