<svg width="12" height="15" viewBox="0 0 12 15" fill="none" xmlns="http://www.w3.org/2000/svg">
<path d="M5.66667 1.41667C6.83825 1.41667 7.79167 2.37008 7.79167 3.54167H9.20833C9.20833 1.58879 7.61954 0 5.66667 0C3.71379 0 2.125 1.58879 2.125 3.54167V4.95833H1.41667C0.635375 4.95833 0 5.59371 0 6.375V12.75C0 13.5313 0.635375 14.1667 1.41667 14.1667H9.91667C10.698 14.1667 11.3333 13.5313 11.3333 12.75V6.375C11.3333 5.59371 10.698 4.95833 9.91667 4.95833H3.54167V3.54167C3.54167 2.37008 4.49508 1.41667 5.66667 1.41667ZM9.91808 12.75H6.375V11.1364C6.79646 10.8906 7.08333 10.4387 7.08333 9.91667C7.08333 9.13538 6.44796 8.5 5.66667 8.5C4.88537 8.5 4.25 9.13538 4.25 9.91667C4.25 10.438 4.53687 10.8906 4.95833 11.1364V12.75H1.41667V6.375H9.91667L9.91808 12.75Z" fill="#6C6C6C"/>
</svg>
