<?xml version="1.0" standalone="no"?>
<!DOCTYPE svg PUBLIC "-//W3C//DTD SVG 20010904//EN"
 "http://www.w3.org/TR/2001/REC-SVG-20010904/DTD/svg10.dtd">
<svg version="1.0" xmlns="http://www.w3.org/2000/svg"
 width="512.000000pt" height="512.000000pt" viewBox="0 0 512.000000 512.000000"
 preserveAspectRatio="xMidYMid meet">

<g transform="translate(0.000000,512.000000) scale(0.100000,-0.100000)"
fill="#000000" stroke="none">
<path d="M2370 5109 c-257 -29 -539 -136 -750 -284 -106 -75 -275 -236 -350
-335 -142 -188 -234 -375 -290 -594 l-17 -69 -99 -32 c-204 -65 -354 -155
-499 -300 -191 -190 -300 -399 -345 -663 -116 -672 352 -1311 1030 -1408 52
-8 141 -14 198 -14 l102 0 0 200 0 200 -102 0 c-247 0 -459 89 -620 257 -256
270 -299 663 -107 991 44 73 198 227 271 270 128 76 252 111 450 127 l77 7 6
56 c36 332 100 514 252 716 188 250 455 412 771 466 529 91 1058 -180 1295
-663 97 -198 127 -356 127 -673 l0 -212 203 -4 c186 -4 209 -7 283 -31 200
-66 365 -231 431 -431 37 -113 39 -285 5 -396 -66 -211 -230 -379 -436 -447
-75 -24 -97 -27 -288 -31 l-208 -4 0 -199 0 -199 183 0 c204 0 327 16 446 57
497 170 799 669 716 1182 -72 445 -430 811 -862 882 l-72 12 -5 66 c-36 404
-183 733 -455 1015 -351 362 -845 541 -1341 485z"/>
<path d="M1750 1400 l0 -1400 200 0 200 0 0 200 0 200 400 0 400 0 0 -200 0
-200 200 0 200 0 0 1400 0 1400 -200 0 -200 0 0 -200 0 -200 -400 0 -400 0 0
200 0 200 -200 0 -200 0 0 -1400z m1200 400 l0 -200 -400 0 -400 0 0 200 0
200 400 0 400 0 0 -200z m0 -800 l0 -200 -400 0 -400 0 0 200 0 200 400 0 400
0 0 -200z"/>
</g>
</svg>
