<?xml version="1.0" standalone="no"?>
<!DOCTYPE svg PUBLIC "-//W3C//DTD SVG 20010904//EN"
 "http://www.w3.org/TR/2001/REC-SVG-20010904/DTD/svg10.dtd">
<svg version="1.0" xmlns="http://www.w3.org/2000/svg"
 width="512.000000pt" height="512.000000pt" viewBox="0 0 512.000000 512.000000"
 preserveAspectRatio="xMidYMid meet">

<g transform="translate(0.000000,512.000000) scale(0.100000,-0.100000)"
fill="#000000" stroke="none">
<path d="M783 5106 c-94 -30 -183 -127 -203 -220 -7 -35 -9 -757 -8 -2356 l3
-2305 23 -47 c30 -60 90 -120 150 -150 l47 -23 1765 0 1765 0 47 23 c60 30
120 90 150 150 l23 47 3 1950 c1 1349 -1 1966 -8 2001 -6 29 -25 72 -43 97
-50 71 -714 758 -766 793 -25 18 -64 37 -86 43 -63 17 -2806 14 -2862 -3z
m2577 -688 c0 -444 0 -446 63 -492 27 -20 42 -21 428 -24 l399 -3 0 -1799 0
-1800 -1690 0 -1690 0 0 2260 0 2260 1245 0 1245 0 0 -402z m704 -115 l100
-103 -252 0 -252 0 0 261 0 262 152 -159 c84 -88 197 -205 252 -261z"/>
<path d="M1523 3430 c-56 -34 -81 -91 -68 -157 5 -29 26 -58 93 -125 l86 -88
-82 -83 c-45 -46 -86 -96 -92 -111 -27 -71 6 -153 75 -186 79 -38 126 -21 236
87 l79 77 88 -86 c101 -99 132 -112 207 -83 71 27 105 92 90 172 -5 29 -26 57
-91 123 l-84 86 61 59 c80 78 119 139 119 184 0 82 -67 151 -147 151 -59 0
-85 -16 -173 -104 l-75 -76 -80 79 c-44 43 -90 84 -102 90 -34 17 -104 13
-140 -9z"/>
<path d="M3515 3439 c-11 -6 -111 -102 -222 -212 l-202 -201 -85 81 c-61 59
-95 85 -125 93 -122 33 -225 -88 -173 -202 28 -61 283 -311 335 -328 83 -26
87 -23 390 278 294 294 307 310 293 385 -8 42 -38 82 -76 102 -34 17 -106 19
-135 4z"/>
<path d="M1460 2151 c-50 -27 -73 -62 -78 -123 -3 -44 0 -59 20 -88 46 -69 52
-70 443 -70 313 0 354 2 385 18 107 53 107 211 0 264 -31 16 -72 18 -385 18
-322 0 -353 -2 -385 -19z"/>
<path d="M2804 2156 c-87 -38 -116 -165 -52 -233 47 -51 61 -53 434 -53 298 0
351 2 380 16 106 50 110 203 8 261 -38 22 -45 23 -389 22 -271 0 -357 -3 -381
-13z"/>
<path d="M1460 1668 c-103 -54 -108 -197 -8 -258 31 -19 51 -20 393 -20 342 0
362 1 393 20 101 62 95 212 -11 260 -39 18 -68 20 -382 20 -334 0 -342 0 -385
-22z"/>
<path d="M2822 1683 c-34 -7 -89 -64 -100 -105 -19 -69 13 -139 80 -174 22
-11 97 -14 386 -14 357 0 359 0 393 23 96 64 87 207 -16 257 -39 19 -60 20
-381 19 -186 -1 -349 -4 -362 -6z"/>
<path d="M1452 1170 c-94 -57 -96 -195 -3 -252 36 -23 39 -23 396 -23 322 0
363 2 392 17 96 53 97 199 1 258 -31 19 -51 20 -393 20 -342 0 -362 -1 -393
-20z"/>
</g>
</svg>
