<?xml version="1.0" standalone="no"?>
<!DOCTYPE svg PUBLIC "-//W3C//DTD SVG 20010904//EN"
 "http://www.w3.org/TR/2001/REC-SVG-20010904/DTD/svg10.dtd">
<svg version="1.0" xmlns="http://www.w3.org/2000/svg"
 width="512.000000pt" height="512.000000pt" viewBox="0 0 512.000000 512.000000"
 preserveAspectRatio="xMidYMid meet">

<g transform="translate(0.000000,512.000000) scale(0.100000,-0.100000)"
fill="#000000" stroke="none">
<path d="M100 2560 l0 -2560 1963 2 1962 3 100 27 c181 48 320 117 457 226
435 347 563 951 307 1452 -62 120 -125 204 -231 306 -103 99 -180 152 -312
215 -95 45 -270 99 -322 99 l-24 0 0 1395 0 1395 -1950 0 -1950 0 0 -2560z
m600 2085 l0 -175 150 0 150 0 0 175 0 175 150 0 150 0 0 -175 0 -175 150 0
150 0 0 175 0 175 150 0 150 0 0 -175 0 -175 150 0 150 0 0 175 0 175 150 0
150 0 0 -175 0 -175 150 0 150 0 0 175 0 175 150 0 150 0 0 -175 0 -175 150 0
150 0 0 175 0 175 150 0 150 0 0 -1242 0 -1243 -83 -16 c-45 -9 -125 -34 -177
-55 l-95 -39 -1307 -2 -1308 -3 0 -150 0 -150 1112 0 1111 0 -20 -23 c-28 -29
-123 -181 -147 -235 l-19 -42 -1019 0 -1018 0 0 -150 0 -150 978 0 977 0 0
-150 0 -150 -977 0 -978 0 0 -150 0 -150 1021 0 1020 0 14 -34 c39 -93 136
-235 229 -333 l49 -53 -1332 0 -1331 0 0 2260 0 2260 150 0 150 0 0 -175z
m3375 -2630 c98 -27 254 -108 330 -172 283 -238 389 -625 264 -967 -132 -363
-490 -598 -873 -573 -319 21 -599 215 -735 509 -51 109 -71 190 -78 318 -23
430 275 809 708 900 67 14 314 5 384 -15z"/>
<path d="M730 3870 l0 -150 1318 2 1317 3 3 148 3 147 -1321 0 -1320 0 0 -150z"/>
<path d="M730 3270 l0 -150 1318 2 1317 3 3 148 3 147 -1321 0 -1320 0 0 -150z"/>
<path d="M730 2670 l0 -150 1318 2 1317 3 3 148 3 147 -1321 0 -1320 0 0 -150z"/>
<path d="M3372 1173 l3 -148 478 -3 477 -2 0 150 0 150 -480 0 -481 0 3 -147z"/>
</g>
</svg>
