<?xml version="1.0" standalone="no"?>
<!DOCTYPE svg PUBLIC "-//W3C//DTD SVG 20010904//EN"
 "http://www.w3.org/TR/2001/REC-SVG-20010904/DTD/svg10.dtd">
<svg version="1.0" xmlns="http://www.w3.org/2000/svg"
 width="512.000000pt" height="512.000000pt" viewBox="0 0 512.000000 512.000000"
 preserveAspectRatio="xMidYMid meet">

<g transform="translate(0.000000,512.000000) scale(0.100000,-0.100000)"
fill="#000000" stroke="none">
<path d="M1730 5014 c-291 -62 -509 -274 -581 -564 -18 -70 -21 -104 -17 -205
6 -140 33 -236 100 -350 49 -84 180 -216 262 -264 134 -79 313 -118 464 -101
172 20 315 87 439 205 116 112 124 95 -172 364 l-245 223 0 329 0 330 -25 24
c-21 22 -33 25 -92 24 -37 0 -97 -7 -133 -15z m108 -406 l-3 -282 -254 -148
c-139 -81 -257 -146 -261 -143 -4 2 -16 30 -26 62 -15 45 -19 87 -19 188 1
123 2 134 33 210 77 191 227 323 426 375 118 31 107 61 104 -262z m262 -585
c107 -97 196 -180 198 -184 5 -12 -81 -76 -146 -109 -172 -85 -374 -84 -550 2
-75 37 -213 160 -197 176 11 12 487 291 495 292 3 0 93 -79 200 -177z"/>
<path d="M2060 4990 c-19 -19 -20 -33 -20 -333 0 -235 3 -317 13 -330 6 -9
109 -104 227 -211 268 -244 275 -246 344 -96 90 196 87 408 -9 605 -85 175
-237 310 -414 365 -80 25 -116 25 -141 0z m237 -202 c166 -113 263 -310 250
-503 -3 -44 -13 -104 -22 -133 l-16 -53 -43 38 c-23 21 -97 88 -164 148 l-122
110 0 228 0 227 35 -14 c19 -8 56 -30 82 -48z"/>
<path d="M3825 4595 c-30 -29 -32 -55 -6 -86 15 -19 32 -24 92 -30 41 -4 103
-8 139 -8 l65 -1 -35 -24 c-19 -13 -126 -78 -237 -145 -774 -465 -1625 -867
-2578 -1218 -113 -42 -131 -51 -139 -76 -14 -38 3 -79 36 -91 22 -8 57 2 200
54 946 346 1887 798 2658 1275 91 56 166 101 168 100 1 -1 -16 -50 -38 -109
-22 -58 -40 -117 -40 -131 0 -54 66 -83 109 -47 21 18 181 431 181 469 0 12
-8 31 -18 43 -18 22 -30 24 -243 36 -303 17 -286 18 -314 -11z"/>
<path d="M870 4073 c-44 -16 -55 -91 -18 -117 48 -34 108 -7 108 48 0 18 -6
40 -12 49 -14 18 -55 29 -78 20z"/>
<path d="M4332 3971 c-98 -72 -358 -275 -369 -289 -10 -12 -13 -299 -13 -1357
0 -1197 2 -1343 16 -1363 l15 -22 409 0 409 0 15 22 c14 20 16 166 16 1364 0
1264 -1 1343 -17 1361 -10 11 -65 56 -123 100 -58 44 -145 109 -193 146 -48
37 -96 67 -106 67 -10 0 -36 -13 -59 -29z m208 -246 l150 -116 0 -1264 0
-1265 -300 0 -300 0 0 1264 0 1265 148 114 c81 64 148 116 149 116 2 1 70 -51
153 -114z"/>
<path d="M2849 3069 c-101 -77 -194 -150 -206 -162 l-23 -20 0 -952 c0 -844 2
-953 16 -973 l15 -22 409 0 409 0 15 22 c14 20 16 129 16 970 l0 947 -22 25
c-13 13 -106 88 -207 165 -133 103 -191 141 -211 141 -20 0 -78 -38 -211 -141z
m363 -131 l148 -113 0 -872 0 -873 -300 0 -300 0 0 873 0 872 147 113 c81 61
149 112 152 112 2 0 71 -51 153 -112z"/>
<path d="M1500 2372 l-205 -157 -3 -382 c-1 -211 -6 -383 -11 -383 -4 0 -34 9
-66 20 -164 56 -375 41 -535 -40 -168 -85 -292 -229 -356 -415 -26 -72 -28
-93 -28 -215 0 -119 3 -144 27 -215 38 -114 91 -199 177 -285 88 -88 174 -141
284 -176 365 -115 751 80 883 448 23 64 27 90 29 218 l3 145 221 5 c205 5 223
6 236 24 12 17 14 119 14 627 0 564 -1 608 -17 627 -17 19 -210 169 -342 265
-35 26 -73 47 -85 47 -12 0 -109 -67 -226 -158z m384 -120 l146 -112 0 -530 0
-530 -192 0 -193 0 -35 67 c-20 40 -64 97 -107 142 l-73 76 0 390 1 390 147
112 c81 62 150 111 154 110 3 -1 72 -53 152 -115z m-735 -908 c96 -27 172 -73
246 -148 117 -118 165 -235 165 -401 0 -488 -583 -745 -942 -416 -118 109
-176 229 -185 386 -23 390 341 684 716 579z"/>
<path d="M1081 885 l-186 -184 -81 79 c-70 69 -86 80 -116 80 -42 0 -68 -25
-68 -66 0 -23 21 -50 117 -146 98 -99 123 -118 148 -118 26 0 60 30 249 219
195 195 219 223 219 252 0 21 -7 38 -22 51 -49 39 -63 30 -260 -167z"/>
</g>
</svg>
