<?xml version="1.0" standalone="no"?>
<!DOCTYPE svg PUBLIC "-//W3C//DTD SVG 20010904//EN"
 "http://www.w3.org/TR/2001/REC-SVG-20010904/DTD/svg10.dtd">
<svg version="1.0" xmlns="http://www.w3.org/2000/svg"
 width="512.000000pt" height="512.000000pt" viewBox="0 0 512.000000 512.000000"
 preserveAspectRatio="xMidYMid meet">

<g transform="translate(0.000000,512.000000) scale(0.100000,-0.100000)"
fill="#000000" stroke="none">
<path d="M750 4631 c-43 -14 -84 -38 -111 -68 -15 -15 -165 -269 -333 -564
-340 -596 -320 -549 -290 -697 31 -154 144 -334 263 -416 l41 -29 0 -1113 0
-1114 -55 0 c-46 0 -60 -4 -80 -25 -32 -31 -32 -69 0 -100 l24 -25 2351 0
2351 0 24 25 c32 31 32 69 0 100 -20 21 -34 25 -80 25 l-55 0 0 1113 0 1112
57 45 c120 95 217 253 247 402 30 148 50 101 -290 697 -168 295 -318 549 -333
564 -14 16 -44 39 -66 50 l-40 22 -1800 2 c-990 1 -1811 -2 -1825 -6z m3613
-163 c19 -17 547 -929 547 -943 0 -2 -50 -5 -111 -7 -102 -3 -112 -5 -130 -27
-25 -31 -24 -69 3 -98 20 -22 28 -23 155 -23 155 0 150 5 110 -110 -60 -168
-203 -300 -372 -345 -89 -23 -226 -19 -306 8 -138 47 -251 141 -316 262 -32
61 -65 169 -55 179 3 3 128 6 278 6 l273 0 20 26 c12 15 21 33 21 40 0 26 -23
62 -47 73 -34 16 -3712 16 -3746 0 -24 -11 -47 -47 -47 -73 0 -7 9 -25 21 -40
l20 -26 273 0 c150 0 275 -3 278 -6 10 -9 -20 -105 -52 -171 -61 -122 -178
-222 -319 -270 -80 -27 -217 -31 -306 -8 -172 45 -324 188 -375 354 -34 107
-40 101 112 101 121 0 134 2 155 22 28 26 30 67 4 99 -18 22 -28 24 -130 27
-61 2 -111 5 -111 7 0 14 528 926 547 943 l24 22 1779 0 1779 0 24 -22z
m-1883 -1105 c-1 -25 -31 -117 -56 -168 -35 -72 -120 -166 -191 -211 -28 -19
-87 -45 -130 -60 -71 -24 -88 -26 -188 -21 -87 4 -123 10 -173 30 -124 51
-233 150 -290 262 -21 42 -52 139 -52 162 0 11 100 13 540 13 297 0 540 -3
540 -7z m1240 -6 c0 -28 -33 -125 -61 -178 -57 -107 -175 -207 -294 -251 -43
-15 -91 -23 -165 -26 -94 -4 -114 -1 -183 22 -95 32 -146 63 -215 130 -80 77
-133 173 -157 284 l-7 32 541 0 c441 0 541 -2 541 -13z m-2332 -337 c229 -308
691 -362 991 -116 58 48 129 130 157 182 10 19 21 34 24 34 3 0 14 -15 24 -34
54 -101 170 -207 291 -266 103 -51 187 -70 306 -70 246 0 463 120 593 329 l28
43 42 -63 c84 -124 215 -226 358 -276 96 -35 280 -44 377 -19 34 9 65 16 67
16 2 0 4 -484 4 -1075 l0 -1075 -125 0 -125 0 0 934 c0 929 0 933 -21 960
l-20 26 -515 0 c-501 0 -515 -1 -534 -20 -20 -20 -20 -33 -20 -960 l0 -940
-1410 0 -1410 0 0 1075 c0 591 2 1075 5 1075 2 0 30 -7 62 -15 74 -19 239 -19
323 0 158 37 334 163 417 297 34 55 38 59 50 42 7 -11 35 -48 61 -84z m2862
-1305 l0 -685 -405 0 -405 0 0 685 0 685 405 0 405 0 0 -685z m0 -960 l0 -125
-405 0 -405 0 0 125 0 125 405 0 405 0 0 -125z"/>
<path d="M741 2524 c-21 -26 -21 -33 -21 -809 0 -756 1 -784 19 -806 l19 -24
1110 -3 1111 -2 28 24 28 24 0 790 c0 763 -1 791 -19 811 l-19 21 -1118 0
-1118 0 -20 -26z m2147 -806 l-3 -683 -1007 -3 -1008 -2 0 685 0 685 1010 0
1010 0 -2 -682z"/>
</g>
</svg>
