<?xml version="1.0" standalone="no"?>
<!DOCTYPE svg PUBLIC "-//W3C//DTD SVG 20010904//EN"
 "http://www.w3.org/TR/2001/REC-SVG-20010904/DTD/svg10.dtd">
<svg version="1.0" xmlns="http://www.w3.org/2000/svg"
 width="512.000000pt" height="512.000000pt" viewBox="0 0 512.000000 512.000000"
 preserveAspectRatio="xMidYMid meet">

<g transform="translate(0.000000,512.000000) scale(0.100000,-0.100000)"
fill="#000000" stroke="none">
<path d="M2467 5110 c-80 -14 -192 -73 -251 -133 -91 -91 -136 -206 -136 -352
-1 -54 -5 -86 -15 -99 -10 -13 -15 -43 -15 -81 0 -50 5 -69 28 -106 16 -24 45
-56 64 -71 26 -20 41 -43 54 -80 27 -82 51 -131 84 -173 68 -85 20 -229 -94
-285 -24 -11 -117 -43 -207 -71 -90 -28 -181 -60 -204 -71 -104 -53 -158 -130
-171 -243 -8 -75 5 -89 106 -116 130 -34 456 -68 651 -69 l65 0 33 210 c30
196 32 213 17 235 -9 13 -16 30 -16 37 1 17 85 108 100 108 16 0 99 -92 100
-110 0 -9 -7 -25 -15 -38 -15 -20 -13 -40 16 -232 l33 -210 65 0 c188 0 541
37 654 69 97 27 111 42 103 114 -8 76 -40 150 -83 187 -52 46 -115 74 -289
128 -191 59 -219 71 -262 107 -47 39 -65 81 -66 151 -1 54 3 67 30 105 34 47
84 158 84 185 0 9 23 37 51 63 89 81 116 164 80 246 -15 35 -21 68 -21 125 0
214 -123 385 -325 454 -59 20 -184 28 -248 16z"/>
<path d="M2486 2918 c-50 -38 -56 -68 -56 -288 l0 -200 -912 0 c-876 0 -914
-1 -944 -19 -62 -38 -64 -53 -64 -426 0 -290 2 -342 16 -371 47 -100 181 -100
228 0 13 29 16 75 16 300 l0 266 830 0 830 0 0 -266 c0 -292 4 -314 60 -354
38 -27 103 -26 142 1 54 39 58 62 58 354 l0 265 830 0 830 0 0 -266 c0 -292 4
-314 60 -354 38 -27 103 -26 142 1 56 40 58 56 58 425 0 373 -2 385 -65 424
-32 20 -47 20 -944 20 l-911 0 0 200 c0 222 -6 252 -58 289 -40 28 -107 28
-146 -1z"/>
<path d="M570 1296 c-149 -33 -234 -133 -251 -298 -5 -46 -12 -104 -15 -130
-7 -53 16 -103 59 -131 13 -9 30 -37 40 -71 10 -30 29 -69 42 -85 48 -57 24
-160 -45 -196 -17 -9 -79 -31 -138 -49 -143 -44 -171 -57 -209 -96 -34 -34
-62 -123 -50 -155 4 -9 22 -22 41 -30 41 -17 226 -41 387 -50 135 -8 117 -27
145 153 13 87 14 119 5 138 -10 22 -7 30 16 60 16 18 35 34 43 34 8 0 27 -16
43 -34 23 -30 26 -38 16 -60 -9 -19 -8 -51 5 -138 28 -180 10 -161 145 -153
161 9 346 33 387 50 19 8 37 21 41 30 12 32 -16 121 -50 155 -38 39 -66 52
-209 96 -59 18 -121 40 -138 49 -69 36 -93 139 -45 196 13 16 32 55 42 85 10
34 27 62 40 71 43 28 66 78 59 131 -3 26 -10 84 -15 130 -14 134 -70 221 -176
275 -26 13 -136 39 -154 36 -3 0 -31 -6 -61 -13z"/>
<path d="M2490 1296 c-149 -33 -234 -133 -251 -298 -5 -46 -12 -104 -15 -130
-7 -53 16 -103 59 -131 13 -9 30 -37 40 -71 10 -30 29 -69 42 -85 48 -57 24
-160 -45 -196 -17 -9 -79 -31 -138 -49 -143 -44 -171 -57 -209 -96 -34 -34
-62 -123 -50 -155 4 -9 22 -22 41 -30 41 -17 226 -41 387 -50 135 -8 117 -27
145 153 13 87 14 119 5 138 -10 22 -7 30 16 60 34 42 50 42 86 -1 24 -29 26
-36 16 -59 -9 -20 -8 -50 5 -138 27 -180 9 -161 145 -153 161 9 346 33 387 50
19 8 37 21 41 30 12 32 -16 121 -50 155 -38 39 -66 52 -209 96 -59 18 -121 40
-138 49 -69 36 -93 139 -45 196 13 16 32 55 42 85 10 34 27 62 40 71 43 28 66
78 59 131 -3 26 -10 84 -15 130 -14 134 -70 221 -176 275 -26 13 -136 39 -154
36 -3 0 -31 -6 -61 -13z"/>
<path d="M4410 1296 c-149 -33 -234 -133 -251 -298 -5 -46 -12 -104 -15 -130
-7 -53 16 -103 59 -131 13 -8 30 -37 40 -69 9 -29 28 -69 42 -88 47 -63 24
-159 -45 -195 -17 -9 -79 -31 -138 -49 -143 -44 -171 -57 -209 -96 -34 -34
-62 -123 -50 -155 4 -9 22 -22 41 -30 41 -17 226 -41 387 -50 135 -8 117 -27
145 153 13 87 14 119 5 138 -10 22 -7 30 16 60 34 42 50 42 86 -1 24 -29 26
-36 16 -59 -9 -20 -8 -50 5 -138 27 -180 9 -161 145 -153 161 9 346 33 387 50
19 8 37 21 41 30 12 32 -16 121 -50 155 -38 39 -66 52 -209 96 -59 18 -121 40
-138 49 -69 36 -92 132 -45 195 14 19 33 59 42 88 10 32 27 61 40 69 43 28 66
78 59 131 -3 26 -10 84 -15 130 -14 134 -70 221 -176 275 -26 13 -136 39 -154
36 -3 0 -31 -6 -61 -13z"/>
</g>
</svg>
