<?xml version="1.0" standalone="no"?>
<!DOCTYPE svg PUBLIC "-//W3C//DTD SVG 20010904//EN"
 "http://www.w3.org/TR/2001/REC-SVG-20010904/DTD/svg10.dtd">
<svg version="1.0" xmlns="http://www.w3.org/2000/svg"
 width="512.000000pt" height="512.000000pt" viewBox="0 0 512.000000 512.000000"
 preserveAspectRatio="xMidYMid meet">

<g transform="translate(0.000000,512.000000) scale(0.100000,-0.100000)"
fill="#000000" stroke="none">
<path d="M2370 5114 c-19 -2 -78 -9 -130 -15 -792 -90 -1522 -586 -1924 -1305
-193 -346 -308 -774 -310 -1155 -1 -142 0 -146 26 -186 41 -62 90 -88 168 -88
77 0 127 26 167 86 23 35 27 53 34 182 16 258 42 398 115 617 212 635 719
1142 1356 1355 925 309 1937 -35 2481 -842 l66 -98 -183 -5 c-177 -5 -184 -6
-223 -32 -62 -41 -88 -90 -88 -168 0 -78 26 -127 88 -168 l40 -27 301 -3 c199
-2 321 1 361 8 194 38 357 201 395 395 7 40 10 162 8 361 l-3 301 -27 40 c-41
62 -90 88 -168 88 -78 0 -127 -26 -168 -88 -27 -40 -27 -43 -30 -234 l-4 -194
-50 73 c-128 186 -322 395 -503 541 -359 289 -773 469 -1245 542 -100 15 -472
28 -550 19z"/>
<path d="M2406 3850 c-237 -38 -442 -140 -611 -305 -350 -343 -433 -853 -210
-1295 78 -154 196 -311 424 -560 142 -155 251 -288 318 -386 58 -87 87 -113
142 -132 44 -15 138 -15 182 0 53 18 77 41 152 146 81 113 167 218 310 374
229 251 345 405 424 563 217 432 137 942 -201 1281 -155 154 -339 255 -551
300 -85 19 -298 26 -379 14z m292 -405 c46 -9 115 -34 172 -62 79 -38 109 -60
181 -132 72 -72 94 -102 132 -181 59 -121 82 -230 74 -350 -16 -235 -100 -381
-428 -745 -89 -99 -184 -208 -212 -242 -28 -35 -53 -63 -57 -63 -4 0 -29 28
-57 63 -28 34 -123 143 -212 242 -328 364 -412 510 -428 745 -8 120 15 229 74
350 38 79 60 109 132 181 71 71 102 94 181 133 147 72 291 92 448 61z"/>
<path d="M2474 3056 c-94 -29 -180 -118 -205 -210 -16 -60 -6 -173 20 -224
115 -225 433 -227 548 -3 29 55 33 72 33 140 0 67 -4 86 -31 140 -67 134 -223
201 -365 157z"/>
<path d="M4858 2751 c-42 -14 -84 -48 -109 -87 -19 -31 -23 -58 -31 -183 -19
-311 -71 -536 -184 -796 -198 -451 -565 -836 -1009 -1058 -613 -305 -1325
-301 -1939 13 -334 171 -639 448 -839 762 l-37 56 173 4 c161 3 175 5 210 27
21 13 50 42 65 64 23 34 27 52 27 107 0 55 -4 73 -27 107 -15 22 -44 51 -65
64 -37 24 -43 24 -333 27 -195 2 -315 -1 -355 -8 -194 -38 -357 -201 -395
-395 -7 -40 -10 -162 -8 -361 l3 -301 27 -40 c41 -62 90 -88 168 -88 78 0 127
26 168 88 27 40 27 44 32 240 l5 200 47 -70 c74 -111 199 -262 309 -372 600
-600 1445 -861 2285 -706 664 123 1255 514 1639 1085 273 407 427 889 429
1350 1 136 0 147 -23 183 -34 55 -88 87 -152 92 -30 3 -66 1 -81 -4z"/>
</g>
</svg>
