<?xml version="1.0" standalone="no"?>
<!DOCTYPE svg PUBLIC "-//W3C//DTD SVG 20010904//EN"
 "http://www.w3.org/TR/2001/REC-SVG-20010904/DTD/svg10.dtd">
<svg version="1.0" xmlns="http://www.w3.org/2000/svg"
 width="512.000000pt" height="512.000000pt" viewBox="0 0 512.000000 512.000000"
 preserveAspectRatio="xMidYMid meet">

<g transform="translate(0.000000,512.000000) scale(0.100000,-0.100000)"
fill="#000000" stroke="none">
<path d="M2285 5114 c-342 -37 -587 -106 -870 -244 -716 -351 -1203 -1034
-1311 -1840 -19 -143 -18 -457 2 -612 100 -778 604 -1482 1309 -1828 347 -170
667 -244 1055 -244 200 -1 304 9 463 40 43 9 81 14 83 12 2 -3 -3 -75 -12
-161 -18 -173 -13 -205 32 -226 18 -8 293 -11 985 -11 l960 0 24 25 c20 19 25
34 25 72 0 26 -38 425 -84 886 -80 798 -85 840 -107 863 -18 20 -32 24 -76 24
-29 0 -53 3 -53 6 0 4 11 37 25 75 40 111 93 344 111 488 23 184 16 515 -15
686 -110 617 -430 1144 -921 1514 -321 242 -692 397 -1090 456 -110 16 -447
28 -535 19z m433 -185 c383 -41 757 -187 1074 -419 128 -93 361 -324 455 -450
295 -397 443 -843 443 -1335 0 -266 -48 -539 -133 -760 l-34 -90 -40 -3 -40
-3 -11 68 c-33 197 -194 347 -390 360 -175 12 -331 -76 -407 -230 -21 -43 -38
-96 -43 -132 l-7 -60 -191 -5 c-196 -5 -216 -9 -228 -48 -5 -14 -126 -1201
-126 -1230 0 -11 -98 -35 -250 -59 -75 -12 -166 -16 -320 -16 -186 0 -235 4
-360 26 -716 127 -1307 569 -1620 1212 -158 322 -224 614 -224 975 0 222 16
349 69 555 229 895 1001 1553 1935 1648 82 9 358 6 448 -4z m1408 -2827 c60
-30 111 -92 129 -156 9 -31 14 -60 10 -66 -4 -6 -98 -10 -257 -10 l-251 0 5
44 c10 86 79 170 165 202 51 19 148 12 199 -14z m-536 -502 c0 -94 2 -103 25
-125 31 -32 75 -32 112 -1 27 23 28 29 31 125 l4 101 254 0 254 0 0 -100 c0
-94 2 -103 25 -125 34 -35 78 -33 116 4 28 28 29 33 29 125 l0 96 130 0 c126
0 130 -1 134 -22 7 -32 146 -1447 146 -1480 l0 -28 -840 0 c-592 0 -840 3
-840 11 0 6 34 347 75 759 41 412 75 751 75 754 0 3 61 6 135 6 l135 0 0 -100z"/>
<path d="M2295 4594 c-242 -34 -408 -78 -573 -152 -552 -246 -953 -740 -1078
-1327 -118 -561 28 -1148 398 -1590 324 -388 777 -621 1297 -666 71 -7 141 -9
155 -5 60 15 86 89 47 137 -16 21 -32 24 -167 36 -180 16 -274 34 -419 80
-837 268 -1330 1131 -1139 1993 74 331 235 614 486 855 307 295 686 456 1108
472 688 26 1307 -347 1605 -969 98 -205 148 -401 163 -640 7 -101 12 -132 26
-147 36 -39 100 -35 133 8 17 22 16 161 -2 292 -108 813 -725 1458 -1535 1604
-91 16 -433 29 -505 19z"/>
<path d="M1973 3617 c-441 -440 -473 -475 -473 -507 0 -31 14 -48 143 -177
194 -195 166 -197 399 34 l178 177 0 -851 c0 -518 4 -862 10 -877 19 -50 53
-58 260 -54 184 3 189 4 214 27 l26 24 0 864 c0 475 3 863 8 863 4 0 86 -79
182 -175 226 -227 202 -224 382 -47 140 137 163 168 153 211 -4 18 -153 174
-473 494 -437 436 -470 467 -502 467 -32 0 -66 -31 -507 -473z m895 -120 l382
-382 -60 -60 -60 -59 -218 216 c-134 134 -227 219 -244 223 -34 9 -79 -13 -95
-45 -10 -20 -13 -223 -13 -943 l0 -918 -82 3 -83 3 -3 927 -2 926 -32 27 c-56
47 -69 39 -313 -205 l-220 -220 -60 60 -60 60 385 385 c212 212 387 385 390
385 3 0 177 -172 388 -383z"/>
</g>
</svg>
