<?xml version="1.0" standalone="no"?>
<!DOCTYPE svg PUBLIC "-//W3C//DTD SVG 20010904//EN"
 "http://www.w3.org/TR/2001/REC-SVG-20010904/DTD/svg10.dtd">
<svg version="1.0" xmlns="http://www.w3.org/2000/svg"
 width="512.000000pt" height="512.000000pt" viewBox="0 0 512.000000 512.000000"
 preserveAspectRatio="xMidYMid meet">

<g transform="translate(0.000000,512.000000) scale(0.100000,-0.100000)"
fill="#000000" stroke="none">
<path d="M405 5100 c-156 -24 -291 -124 -357 -267 -134 -285 47 -618 360 -665
222 -33 437 101 513 318 26 76 28 211 4 284 -75 225 -293 364 -520 330z"/>
<path d="M4595 5103 c-178 -17 -340 -152 -400 -333 -24 -73 -22 -208 4 -284
76 -217 291 -351 513 -318 258 38 438 278 400 533 -32 217 -209 383 -427 401
-27 3 -68 3 -90 1z"/>
<path d="M406 3990 c-169 -30 -304 -173 -327 -348 -12 -94 -11 -1261 1 -1347
14 -94 52 -168 122 -237 l58 -58 0 -912 c0 -906 0 -912 21 -955 60 -123 230
-156 332 -65 82 75 77 2 77 1027 l0 910 54 53 c34 32 68 78 88 119 l33 68 5
438 5 438 48 -31 c205 -130 455 -177 716 -135 116 19 166 40 208 88 86 98 57
249 -59 308 -45 23 -95 23 -258 -1 -161 -23 -303 16 -447 124 -72 54 -131 122
-246 284 -136 192 -265 261 -431 232z"/>
<path d="M4600 3993 c-131 -23 -208 -81 -330 -253 -157 -221 -277 -324 -433
-371 -60 -19 -84 -21 -195 -15 -70 3 -159 9 -198 12 -60 5 -77 3 -113 -15
-115 -59 -144 -210 -58 -308 42 -48 92 -69 208 -88 261 -42 511 5 716 135 l48
31 5 -438 5 -438 33 -68 c20 -41 54 -87 88 -119 l54 -53 0 -910 c0 -1025 -5
-952 77 -1027 102 -91 272 -58 332 65 21 43 21 49 21 955 l0 912 58 58 c70 69
108 143 122 237 12 86 13 1253 1 1347 -20 155 -121 280 -266 331 -46 16 -138
27 -175 20z"/>
<path d="M1524 3929 c-35 -10 -91 -67 -99 -102 -3 -12 -4 -87 -3 -167 l3 -145
95 1 c52 0 138 2 191 4 88 3 101 2 152 -23 95 -47 163 -143 187 -265 22 -109
-16 -229 -100 -312 -80 -80 -177 -113 -392 -132 l-138 -12 0 -81 c0 -92 18
-132 72 -165 32 -19 52 -20 598 -20 546 0 566 1 598 20 18 11 41 34 52 52 20
32 20 48 18 648 -3 597 -4 616 -23 642 -45 59 -61 63 -294 66 -169 3 -216 1
-222 -10 -5 -7 -9 -63 -9 -124 0 -93 -3 -113 -16 -118 -23 -9 -197 -7 -211 2
-8 5 -13 47 -15 127 l-3 120 -205 2 c-113 1 -219 -3 -236 -8z"/>
</g>
</svg>
