<?xml version="1.0" standalone="no"?>
<!DOCTYPE svg PUBLIC "-//W3C//DTD SVG 20010904//EN"
 "http://www.w3.org/TR/2001/REC-SVG-20010904/DTD/svg10.dtd">
<svg version="1.0" xmlns="http://www.w3.org/2000/svg"
 width="512.000000pt" height="512.000000pt" viewBox="0 0 512.000000 512.000000"
 preserveAspectRatio="xMidYMid meet">

<g transform="translate(0.000000,512.000000) scale(0.100000,-0.100000)"
fill="#000000" stroke="none">
<path d="M2220 5105 c-480 -66 -926 -267 -1308 -588 l-93 -78 -137 -15 c-237
-24 -262 -32 -281 -85 -21 -61 -15 -77 60 -154 42 -44 66 -76 59 -80 -6 -3
-51 -67 -100 -141 -201 -303 -326 -618 -392 -981 -20 -114 -23 -159 -23 -413
0 -254 3 -299 23 -413 48 -265 119 -481 237 -722 252 -514 657 -922 1160
-1170 250 -123 472 -194 750 -237 170 -26 548 -31 705 -10 545 77 1014 295
1410 656 52 48 103 89 115 91 11 2 86 11 167 19 167 18 210 31 232 75 30 57
22 77 -61 163 -73 74 -76 80 -63 101 182 289 292 538 359 807 106 431 105 853
-3 1275 -144 562 -483 1068 -950 1417 -337 252 -735 418 -1148 478 -159 24
-562 26 -718 5z m685 -220 c1061 -162 1875 -1020 1986 -2093 15 -142 6 -461
-15 -596 -56 -349 -188 -679 -387 -971 -79 -116 -87 -152 -44 -203 23 -28 24
-31 8 -35 -34 -10 -354 -39 -360 -34 -5 6 20 275 33 353 5 30 7 31 34 21 55
-21 89 0 152 93 81 119 180 323 229 469 84 252 115 473 106 745 -14 437 -157
838 -425 1196 -71 95 -245 274 -342 353 -565 456 -1323 589 -2010 352 -133
-46 -340 -148 -448 -220 -46 -30 -84 -55 -85 -55 -1 0 -1 35 1 78 4 71 2 81
-20 107 -16 18 -38 30 -64 34 l-39 6 100 63 c314 198 667 317 1060 356 91 9
426 -3 530 -19z m-147 -456 c308 -33 596 -138 848 -308 214 -144 372 -302 513
-511 377 -562 425 -1272 125 -1877 -36 -73 -69 -133 -73 -133 -4 0 -18 12 -32
26 -39 43 -81 56 -126 41 -57 -18 -71 -56 -89 -238 -8 -85 -17 -164 -19 -176
-3 -12 -49 -61 -103 -108 -511 -453 -1204 -597 -1847 -384 -649 215 -1127 764
-1257 1446 -19 101 -23 150 -22 343 0 207 2 236 27 355 56 261 147 478 296
705 9 12 15 10 43 -16 53 -50 80 -64 121 -64 76 0 92 38 121 294 9 71 17 130
18 131 2 1 33 27 69 57 374 313 898 471 1387 417z m-1641 -216 c-3 -27 -14
-114 -23 -194 l-17 -146 -37 14 c-59 23 -96 2 -170 -99 -563 -764 -533 -1801
73 -2553 91 -113 286 -298 398 -377 368 -262 766 -388 1223 -388 447 0 903
150 1238 406 31 24 58 44 60 44 3 0 2 -27 0 -60 -3 -45 0 -66 13 -86 19 -29
70 -54 112 -54 l28 0 -34 -28 c-90 -72 -251 -171 -392 -241 -238 -119 -507
-199 -768 -231 -123 -14 -421 -15 -536 0 -559 69 -1044 310 -1430 712 -616
639 -817 1594 -509 2425 81 219 232 488 372 662 44 54 52 70 52 105 0 23 -7
52 -16 64 -20 29 -25 27 181 50 94 11 174 20 179 21 5 0 6 -20 3 -46z"/>
<path d="M1725 3826 c-65 -21 -99 -42 -142 -89 -51 -55 -67 -86 -82 -155 -15
-74 -16 -1969 0 -2044 21 -103 100 -198 195 -234 47 -18 86 -19 869 -19 l820
0 53 24 c68 31 144 113 169 183 17 50 18 102 18 818 l0 765 -32 65 c-28 56
-72 105 -330 362 -276 274 -302 297 -353 314 -50 17 -105 18 -600 21 -424 2
-554 -1 -585 -11z m1045 -466 c0 -290 4 -321 51 -354 20 -14 61 -16 306 -16
l283 0 0 -713 c0 -791 4 -744 -66 -773 -50 -21 -1518 -21 -1568 0 -71 30 -66
-49 -66 1056 0 904 2 998 16 1019 35 49 45 50 562 51 l482 0 0 -270z m490
-157 c0 -2 -61 -3 -135 -3 l-135 0 0 137 0 138 135 -135 c74 -74 135 -136 135
-137z"/>
<path d="M1990 2873 c-81 -30 -90 -157 -14 -192 17 -7 140 -11 380 -11 l356 0
29 29 c32 32 38 79 17 126 -24 53 -38 55 -410 54 -189 0 -350 -3 -358 -6z"/>
<path d="M1973 2438 c-57 -28 -67 -122 -17 -169 l26 -24 351 -3 c312 -3 356
-1 383 13 61 33 74 117 25 166 l-29 29 -359 -1 c-226 0 -366 -4 -380 -11z"/>
<path d="M1983 2015 c-33 -14 -63 -59 -63 -95 0 -37 30 -81 65 -96 50 -20 670
-21 719 0 43 18 66 51 66 96 0 45 -23 78 -66 96 -48 20 -674 20 -721 -1z"/>
</g>
</svg>
